<?xml version="1.0" encoding="UTF-8" standalone="no"?>
<!-- Created with Inkscape (http://www.inkscape.org/) -->

<svg
   xmlns:dc="http://purl.org/dc/elements/1.1/"
   xmlns:cc="http://creativecommons.org/ns#"
   xmlns:rdf="http://www.w3.org/1999/02/22-rdf-syntax-ns#"
   xmlns:svg="http://www.w3.org/2000/svg"
   xmlns="http://www.w3.org/2000/svg"
   xmlns:sodipodi="http://sodipodi.sourceforge.net/DTD/sodipodi-0.dtd"
   xmlns:inkscape="http://www.inkscape.org/namespaces/inkscape"
   width="358"
   height="358"
   id="svg2"
   version="1.1"
   inkscape:version="0.48.5 r10040"
   sodipodi:docname="drawable.png"
   inkscape:export-filename="/home/edh/Google Drive/Schülervertretung, 2013-2015/Android Application/ic_launcher(36x36).png"
   inkscape:export-xdpi="9.0502796"
   inkscape:export-ydpi="9.0502796">
  <defs
     id="defs4" />
  <sodipodi:namedview
     id="base"
     pagecolor="#ffffff"
     bordercolor="#666666"
     borderopacity="1.0"
     inkscape:pageopacity="0.0"
     inkscape:pageshadow="2"
     inkscape:zoom="1"
     inkscape:cx="192.6949"
     inkscape:cy="111.65903"
     inkscape:document-units="px"
     inkscape:current-layer="layer1"
     showgrid="false"
     inkscape:window-width="1138"
     inkscape:window-height="765"
     inkscape:window-x="50"
     inkscape:window-y="75"
     inkscape:window-maximized="0"
     inkscape:snap-nodes="false" />
  <metadata
     id="metadata7">
    <rdf:RDF>
      <cc:Work
         rdf:about="">
        <dc:format>image/svg+xml</dc:format>
        <dc:type
           rdf:resource="http://purl.org/dc/dcmitype/StillImage" />
        <dc:title></dc:title>
      </cc:Work>
    </rdf:RDF>
  </metadata>
  <g
     inkscape:label="Layer 1"
     inkscape:groupmode="layer"
     id="layer1"
     transform="translate(0,-694.36218)">
    <path
       sodipodi:type="arc"
       style="fill:#cccccc;fill-opacity:1;stroke:#000000;stroke-width:0;stroke-miterlimit:4;stroke-opacity:1;stroke-dasharray:none"
       id="path3055"
       sodipodi:cx="60"
       sodipodi:cy="52.5"
       sodipodi:rx="61"
       sodipodi:ry="54.5"
       d="m 121,52.5 a 61,54.5 0 1 1 -122,0 61,54.5 0 1 1 122,0 z"
       transform="matrix(1.1854931,0,0,1.2270861,1.0887652,697.57745)" />
    <path
       sodipodi:type="arc"
       style="fill:#cccccc;fill-opacity:1;stroke:#000000;stroke-width:0;stroke-miterlimit:4;stroke-opacity:1;stroke-dasharray:none"
       id="path3055-4"
       sodipodi:cx="60"
       sodipodi:cy="52.5"
       sodipodi:rx="61"
       sodipodi:ry="54.5"
       d="m 121,52.5 a 61,54.5 0 1 1 -122,0 61,54.5 0 1 1 122,0 z"
       transform="matrix(1.1854931,0,0,1.2270861,215.08238,697.57744)" />
    <path
       sodipodi:type="arc"
       style="fill:#cccccc;fill-opacity:1;stroke:#000000;stroke-width:0;stroke-miterlimit:4;stroke-opacity:1;stroke-dasharray:none"
       id="path3055-7"
       sodipodi:cx="60"
       sodipodi:cy="52.5"
       sodipodi:rx="61"
       sodipodi:ry="54.5"
       d="m 121,52.5 a 61,54.5 0 1 1 -122,0 61,54.5 0 1 1 122,0 z"
       transform="matrix(1.1854931,0,0,1.2270861,215.08238,921.80938)" />
    <path
       sodipodi:type="arc"
       style="fill:#cccccc;fill-opacity:1;stroke:#000000;stroke-width:0;stroke-miterlimit:4;stroke-opacity:1;stroke-dasharray:none"
       id="path3055-2"
       sodipodi:cx="60"
       sodipodi:cy="52.5"
       sodipodi:rx="61"
       sodipodi:ry="54.5"
       d="m 121,52.5 a 61,54.5 0 1 1 -122,0 61,54.5 0 1 1 122,0 z"
       transform="matrix(1.1854931,0,0,1.2270861,-1.3709295,920.82588)" />
    <rect
       style="fill:#cccccc;fill-opacity:1;stroke:#000000;stroke-width:0;stroke-miterlimit:4;stroke-opacity:1;stroke-dasharray:none"
       id="rect3091"
       width="368.9545"
       height="242.91792"
       x="-6"
       y="759.04907" />
    <rect
       style="fill:#cccccc;fill-opacity:1;stroke:#000000;stroke-width:0;stroke-miterlimit:4;stroke-opacity:1;stroke-dasharray:none"
       id="rect3093"
       width="210.05812"
       height="370.27771"
       x="72.710289"
       y="692.17285" />
    <rect
       style="fill:#cccccc;fill-opacity:1;stroke:#000000;stroke-width:0;stroke-miterlimit:4;stroke-opacity:1;stroke-dasharray:none"
       id="rect3095"
       width="22.137272"
       height="16.22731"
       x="244.39713"
       y="698.07373" />
    <path
       style="fill:#f9f9f9;fill-opacity:1;stroke:#000000;stroke-width:0;stroke-miterlimit:4;stroke-opacity:1;stroke-dasharray:none"
       id="path3099"
       d="m 244.1415,763.22133 c -1.9605,0.69755 -3.81784,1.73235 -5.64593,2.73505 -1.70804,0.83784 -3.49168,1.47018 -5.20399,2.29179 -1.48292,0.53339 -2.88419,1.26132 -4.30176,1.95602 -1.65815,0.83804 -3.3836,1.55893 -4.99994,2.47223 -1.53143,0.93484 -3.27544,1.42826 -4.89193,2.17102 -1.52545,0.49004 -2.8442,1.516 -4.41599,1.85882 -1.42546,0.45453 -2.71796,1.28065 -4.15004,1.68871 -1.48086,0.73864 -2.91068,1.61603 -4.50839,2.08719 -1.52473,0.53774 -2.92852,1.42515 -4.47062,1.89382 -1.50704,0.72722 -2.9416,1.53798 -4.32799,2.471 -1.51663,0.91645 -3.11291,1.62216 -4.72523,2.3654 -1.49448,0.52801 -2.95538,1.16903 -4.34595,1.9339 -1.37477,0.53722 -2.66401,1.25914 -4.00191,1.89527 -1.41269,0.84771 -2.87141,1.62036 -4.251,2.51683 -1.34357,0.70954 -2.64169,1.37654 -3.864,2.29155 -1.35442,0.4852 -2.30608,1.62863 -3.5825,2.23229 -1.19913,0.83579 -2.43801,1.59694 -3.62716,2.44393 -1.49749,0.87557 -2.96667,1.77862 -4.39627,2.76435 -1.47696,0.81623 -2.79046,1.87961 -4.11463,2.92009 -1.28478,0.84522 -2.57095,1.73189 -3.66768,2.8138 -1.07782,0.97429 -2.08632,1.98234 -3.37087,2.69432 -1.18739,0.86518 -2.23364,1.86139 -3.29286,2.87876 -1.1548,0.76197 -2.34577,1.49992 -3.34465,2.4637 -1.06332,0.88761 -2.11195,1.82965 -3.03587,2.86764 -1.68804,1.42842 -3.34938,2.88593 -4.99952,4.35839 -1.99831,1.70391 -4.03759,3.36857 -6.11214,4.97992 -1.2021,0.93947 -2.21319,2.09346 -3.38586,3.05889 -1.00378,0.97059 -1.90802,2.05769 -2.97566,2.96091 -1.02,1.11118 -2.13666,2.11549 -3.15806,3.23145 -1.1154,1.37102 -2.2424,2.73664 -3.33564,4.126 -1.07302,0.9525 -1.69097,2.2642 -2.60435,3.34983 -1.01395,1.18552 -1.94422,2.4352 -2.90908,3.66284 -0.87535,1.31225 -1.98538,2.43279 -3.00394,3.6315 -0.94879,1.30089 -1.85379,2.65941 -2.98521,3.81176 -0.88198,1.15705 -1.73613,2.34713 -2.5878,3.53266 -0.44427,0.48397 -1.19553,0.88527 -0.28022,1.12615 0.41548,0.67226 1.09513,1.08848 1.65325,1.62985 1.26607,1.22805 -0.25901,0.12583 0.98855,0.96339 0.55703,0.78495 1.35277,1.3243 2.02389,1.9882 1.27846,1.26468 -0.236,0.13559 1.00889,1.00029 0.54926,0.78895 1.33992,1.33322 2.00698,1.99828 1.25847,1.25469 -0.2277,0.14303 1.00074,0.99786 1.00045,1.11191 2.0561,2.08561 2.99201,3.27637 1.38821,1.38927 2.77965,2.77967 3.92324,4.40156 1.08966,1.38876 2.47134,2.52297 3.543,3.9111 1.01953,0.98635 2.17124,1.89223 3.03747,3.02564 1.37706,1.04005 2.72103,2.06277 3.93017,3.29692 1.63404,1.10471 2.86019,2.59835 3.94282,4.22864 0.96275,1.22567 2.19313,2.21053 3.12765,3.44658 0.1707,0.12056 0.36448,0.21391 0.51211,0.3617 0.54377,0.54437 0.99289,1.16235 1.65116,1.60729 0.27649,0.18688 0.60109,0.29071 0.90163,0.43607 0.32511,0.24131 0.65021,0.48261 0.97532,0.72391 0.32903,0.18587 0.67536,0.34413 0.98708,0.5576 0.32068,0.2196 0.58804,0.5096 0.90327,0.7369 1.08709,0.78392 2.27939,1.36167 3.30388,2.22186 1.51315,0.9945 3.14966,1.8204 4.42615,3.11425 1.70856,1.05827 3.60231,1.68725 5.36276,2.68649 1.96191,0.759 3.50671,2.24731 5.30387,3.29135 1.3653,1.48923 2.58426,3.18118 4.33873,4.24078 1.29154,1.0773 2.48149,2.31502 4.00873,3.07339 1.31912,1.01021 2.4882,2.22586 3.99505,2.97618 0.82308,0.77845 1.79621,1.35168 2.63064,2.10709 1.62525,1.47133 -0.38339,0.005 1.13286,1.05832 1.29333,0.56982 2.57359,1.5549 3.48789,2.65141 1.1804,0.7637 1.76832,2.13356 3.16153,2.56397 0.71842,0.66822 1.57129,1.12939 2.29718,1.7807 1.56521,1.40443 -0.39123,0.0203 1.0752,1.00281 0.51752,0.90807 1.48912,1.26061 2.28459,1.83048 2.44531,1.7518 -0.96193,-0.34677 1.32556,1.0187 0.711,0.79766 1.60093,1.38165 2.36144,2.11442 1.39888,1.34785 -0.27567,0.0953 1.05874,1.034 1.37374,0.8022 2.51699,2.04607 3.81481,2.90051 0.63323,0.80139 1.47181,1.37839 2.18587,2.08589 1.30117,1.2892 -0.23746,0.13107 1.02049,1.01546 0.54736,0.7907 1.33657,1.33747 2.00263,2.0036 1.25101,1.25112 -0.22452,0.14585 0.99768,0.99709 0.54478,0.78806 1.3328,1.33052 1.99727,1.99326 1.25602,1.25278 -0.22717,0.14369 0.99953,0.99686 0.95625,1.44129 2.01498,2.69925 3.2232,3.93647 0.75416,0.55011 1.5023,1.13148 2.20599,1.7403 0.24403,0.21115 0.40427,0.51229 0.66351,0.70456 0.21496,0.15942 0.48809,0.22038 0.73214,0.33056 0.24683,0.20501 0.49367,0.41003 0.74051,0.61505 0.2484,0.1378 0.4968,0.27562 0.7452,0.41343 0,0 -29.42303,2.87882 -29.42303,2.87882 l 0,0 c -0.25098,-0.19755 -0.50195,-0.39508 -0.75293,-0.59263 -1.587,-1.10288 -2.94812,-2.52846 -4.34598,-3.85417 -1.14493,-1.22628 -2.04171,-2.6593 -3.34595,-3.73015 -0.93448,-1.05802 -1.99195,-2.0055 -2.99735,-2.99275 -0.93143,-1.05672 -1.98482,-2.00597 -2.99639,-2.98213 -0.95334,-1.05482 -2.04404,-1.99914 -3.15475,-2.88155 -1.22722,-1.10194 -2.67326,-1.92534 -3.85826,-3.08409 -1.00035,-1.06343 -2.15898,-1.99035 -3.34306,-2.83997 -1.22956,-1.01356 -2.53582,-1.93879 -3.68329,-3.04526 -1.00105,-0.96647 -2.19397,-1.70416 -3.33955,-2.48657 -1.05084,-1.04197 -2.07745,-2.08371 -3.21065,-3.03374 -1.20279,-0.75631 -2.35509,-1.62945 -3.45901,-2.51603 -1.09725,-1.08003 -2.38402,-1.96326 -3.66636,-2.81036 -1.30633,-1.03781 -2.59244,-2.09659 -3.99588,-2.99878 -1.34585,-1.09991 -2.65527,-2.2288 -3.99741,-3.33142 -1.38417,-1.35349 -2.60008,-2.94167 -4.26712,-3.95617 -1.65028,-1.16556 -3.42214,-2.12912 -5.23378,-3.01891 -1.95714,-0.91509 -3.96806,-1.80315 -5.57263,-3.28542 -1.49371,-0.91174 -2.92624,-1.93104 -4.35297,-2.94548 -1.75497,-1.05913 -3.34189,-2.36977 -5.06512,-3.47853 -1.62183,-1.06741 -3.09738,-2.32301 -4.32415,-3.82603 -1.14318,-1.10591 -2.06867,-2.42302 -3.05814,-3.66319 -1.18151,-1.3539 -2.49227,-2.52726 -3.86554,-3.69223 -1.39119,-1.13661 -2.90486,-2.16148 -4.082928,-3.53119 -1.099096,-0.93504 -2.032474,-2.06409 -3.01274,-3.11803 -1.246431,-1.25002 -2.271923,-2.70503 -3.410617,-4.05092 -1.316931,-1.45132 -2.749735,-2.7836 -4.044307,-4.25436 -0.979058,-1.00788 -2.000319,-1.96964 -3.007803,-2.94506 -0.935472,-1.05774 -1.994485,-2.00496 -3.005756,-2.98666 -0.945691,-1.05957 -2.019216,-2.00133 -3.03386,-2.99188 -0.96166,-1.10084 -2.076003,-2.0665 -2.765397,-3.38329 -0.622522,-1.70229 -0.872883,-3.49215 0.384064,-4.99103 1.124578,-0.84517 1.892736,-2.20384 2.595027,-3.39864 0.923482,-1.23371 2.128335,-2.22763 3.018174,-3.50221 0.797633,-1.39809 1.847722,-2.57662 2.992953,-3.68162 0.160421,-0.24885 0.320841,-0.49771 0.481262,-0.74655 0.169224,-0.17997 0.36486,-0.33844 0.507671,-0.5399 0.588583,-0.83026 0.973608,-1.87401 1.87286,-2.44324 0.845173,-1.27574 1.919475,-2.38201 2.666988,-3.74074 1.353306,-1.06634 2.361222,-2.60016 3.382236,-3.96937 0.973858,-1.16612 1.852265,-2.40722 3.06395,-3.3106 0.847937,-1.11932 1.973086,-2.02936 2.983006,-2.98878 0.985207,-1.27804 2.314757,-2.31059 3.548977,-3.34323 1.90945,-1.82998 4.24063,-3.1894 6.31756,-4.8231 1.49032,-1.54184 3.00925,-3.06715 4.64558,-4.45579 1.23121,-0.863 -0.26107,0.26039 1.00299,-1.0048 0.67705,-0.67765 1.47683,-1.23222 2.04801,-2.02384 1.46573,-0.98378 -0.48949,0.40188 1.07539,-1.00438 0.7282,-0.6544 1.58353,-1.11855 2.30602,-1.78792 1.40682,-0.43829 2.0204,-1.82261 3.25526,-2.54303 0.44395,-0.47822 1.18284,-1.09652 1.74054,-1.43901 0.6428,-0.39477 1.29259,-0.37734 1.6435,-1.22279 1.5119,-1.05208 -0.48848,0.4108 1.13185,-1.05905 0.83618,-0.75852 1.81121,-1.33537 2.6366,-2.11643 1.55072,-0.7807 2.7475,-2.04529 4.14587,-3.0438 1.54437,-0.74762 2.82225,-1.88824 4.29968,-2.73083 0.85367,-0.42855 0.43967,-0.15773 1.22439,-0.83862 0.1864,-0.10855 0.42351,-0.0972 0.62003,-0.1863 0.71239,-0.32277 0.99124,-1.06736 1.76453,-1.27719 0.72902,-0.63392 1.1626,-0.53381 1.80646,-1.07586 0.21632,-0.18212 0.3582,-0.44384 0.58174,-0.61706 0.18168,-0.14077 0.41054,-0.20726 0.61581,-0.31089 0.2068,-0.17816 0.4136,-0.35632 0.6204,-0.53447 1.47593,-0.45263 2.34702,-1.85267 3.8738,-2.19499 0.93818,-0.47135 0.47667,-0.18359 1.37051,-0.88522 0.22385,-0.12442 0.49503,-0.13973 0.72838,-0.24537 0.80813,-0.36586 1.28732,-1.12136 2.1647,-1.34913 0.49206,-0.35089 1.49042,-1.05418 2.00855,-1.3188 0.67711,-0.34582 1.51443,-0.30059 2.02428,-1.00786 1.04254,-0.27425 1.22629,-0.59571 2.11281,-1.0253 0.75167,-0.36426 1.69193,-0.36227 2.31085,-1.03851 0.71352,-0.17692 0.9947,-0.20904 1.66591,-0.52789 0.28556,-0.13565 0.52893,-0.35794 0.82652,-0.46482 0.8037,-0.28865 1.54997,-0.21705 2.15303,-0.99946 1.58979,-0.53775 2.74583,-1.7722 4.28873,-2.42669 0.73204,-0.53903 1.3911,-0.61061 2.16653,-1.0484 0.26785,-0.15122 0.48837,-0.38315 0.76829,-0.51077 0.51729,-0.23584 1.15139,-0.15329 1.61837,-0.53942 1.06002,-0.61312 1.56776,-0.433 2.40151,-0.86994 0.2495,-0.13075 0.41781,-0.3879 0.66858,-0.5162 0.4243,-0.21708 0.98413,-0.0964 1.34311,-0.49138 0.78198,-0.59402 1.26028,-0.53873 2.05302,-1.00588 0.24809,-0.14619 0.44265,-0.37908 0.70376,-0.50064 0.45584,-0.21224 1.03226,-0.0856 1.43982,-0.45116 0.88781,-0.53674 1.30401,-0.41112 2.21635,-0.74457 1.73996,-0.63593 -0.39893,0.028 1.44517,-0.84252 0.24536,-0.11582 0.52482,-0.13866 0.78724,-0.20799 0.55666,-0.23768 1.0549,-0.5998 1.61462,-0.83023 0.9756,-0.40163 2.26431,-0.65884 3.24954,-1.14952 1.0399,-0.50232 0.52095,-0.20489 1.54648,-0.91007 0.26874,-0.13455 0.57902,-0.16649 0.85728,-0.2802 0.93354,-0.38146 1.63451,-1.12096 2.64185,-1.32807 0.47797,-0.24634 0.98626,-0.43736 1.44373,-0.71974 0.24424,-0.15076 0.43201,-0.38781 0.68851,-0.51676 0.71393,-0.35894 1.61183,-0.34477 2.17798,-1.03586 0.93806,-0.25128 1.60644,-0.7041 2.48517,-1.06451 0.90158,-0.36979 1.95989,-0.3969 2.75535,-1.04992 1.04873,-0.35305 1.81364,-0.87816 2.787,-1.37058 0.93174,-0.47137 1.99375,-0.64131 2.7086,-1.49308 0,0 29.47918,3.51548 29.47918,3.51548 z"
       inkscape:connector-curvature="0" />
  </g>
</svg>
