<?xml version="1.0" encoding="UTF-8" standalone="no"?>
<!-- Created with Inkscape (http://www.inkscape.org/) -->

<svg
   xmlns:dc="http://purl.org/dc/elements/1.1/"
   xmlns:cc="http://creativecommons.org/ns#"
   xmlns:rdf="http://www.w3.org/1999/02/22-rdf-syntax-ns#"
   xmlns:svg="http://www.w3.org/2000/svg"
   xmlns="http://www.w3.org/2000/svg"
   xmlns:sodipodi="http://sodipodi.sourceforge.net/DTD/sodipodi-0.dtd"
   xmlns:inkscape="http://www.inkscape.org/namespaces/inkscape"
   width="358"
   height="358"
   id="svg2"
   version="1.1"
   inkscape:version="0.48.5 r10040"
   sodipodi:docname="geolocation.png"
   inkscape:export-filename="/home/edh/Google Drive/Schülervertretung, 2013-2015/Android Application/ic_launcher(36x36).png"
   inkscape:export-xdpi="9.0502796"
   inkscape:export-ydpi="9.0502796">
  <defs
     id="defs4" />
  <sodipodi:namedview
     id="base"
     pagecolor="#ffffff"
     bordercolor="#666666"
     borderopacity="1.0"
     inkscape:pageopacity="0.0"
     inkscape:pageshadow="2"
     inkscape:zoom="0.70710678"
     inkscape:cx="102.57871"
     inkscape:cy="129.24061"
     inkscape:document-units="px"
     inkscape:current-layer="layer1"
     showgrid="false"
     inkscape:window-width="1138"
     inkscape:window-height="765"
     inkscape:window-x="50"
     inkscape:window-y="75"
     inkscape:window-maximized="0"
     inkscape:snap-nodes="false" />
  <metadata
     id="metadata7">
    <rdf:RDF>
      <cc:Work
         rdf:about="">
        <dc:format>image/svg+xml</dc:format>
        <dc:type
           rdf:resource="http://purl.org/dc/dcmitype/StillImage" />
        <dc:title></dc:title>
      </cc:Work>
    </rdf:RDF>
  </metadata>
  <g
     inkscape:label="Layer 1"
     inkscape:groupmode="layer"
     id="layer1"
     transform="translate(0,-694.36218)">
    <path
       sodipodi:type="arc"
       style="fill:#cccccc;fill-opacity:1;stroke:#000000;stroke-width:0;stroke-miterlimit:4;stroke-opacity:1;stroke-dasharray:none"
       id="path3055"
       sodipodi:cx="60"
       sodipodi:cy="52.5"
       sodipodi:rx="61"
       sodipodi:ry="54.5"
       d="M 121,52.5 C 121,82.599519 93.68937,107 60,107 26.31063,107 -1,82.599519 -1,52.5 -1,22.400481 26.31063,-2 60,-2 c 33.68937,0 61,24.400481 61,54.5 z"
       transform="matrix(1.1854931,0,0,1.2270861,1.0887652,697.57745)" />
    <path
       sodipodi:type="arc"
       style="fill:#cccccc;fill-opacity:1;stroke:#000000;stroke-width:0;stroke-miterlimit:4;stroke-opacity:1;stroke-dasharray:none"
       id="path3055-4"
       sodipodi:cx="60"
       sodipodi:cy="52.5"
       sodipodi:rx="61"
       sodipodi:ry="54.5"
       d="M 121,52.5 C 121,82.599519 93.68937,107 60,107 26.31063,107 -1,82.599519 -1,52.5 -1,22.400481 26.31063,-2 60,-2 c 33.68937,0 61,24.400481 61,54.5 z"
       transform="matrix(1.1854931,0,0,1.2270861,215.08238,697.57744)" />
    <path
       sodipodi:type="arc"
       style="fill:#cccccc;fill-opacity:1;stroke:#000000;stroke-width:0;stroke-miterlimit:4;stroke-opacity:1;stroke-dasharray:none"
       id="path3055-7"
       sodipodi:cx="60"
       sodipodi:cy="52.5"
       sodipodi:rx="61"
       sodipodi:ry="54.5"
       d="M 121,52.5 C 121,82.599519 93.68937,107 60,107 26.31063,107 -1,82.599519 -1,52.5 -1,22.400481 26.31063,-2 60,-2 c 33.68937,0 61,24.400481 61,54.5 z"
       transform="matrix(1.1854931,0,0,1.2270861,215.08238,921.80938)" />
    <path
       sodipodi:type="arc"
       style="fill:#cccccc;fill-opacity:1;stroke:#000000;stroke-width:0;stroke-miterlimit:4;stroke-opacity:1;stroke-dasharray:none"
       id="path3055-2"
       sodipodi:cx="60"
       sodipodi:cy="52.5"
       sodipodi:rx="61"
       sodipodi:ry="54.5"
       d="M 121,52.5 C 121,82.599519 93.68937,107 60,107 26.31063,107 -1,82.599519 -1,52.5 -1,22.400481 26.31063,-2 60,-2 c 33.68937,0 61,24.400481 61,54.5 z"
       transform="matrix(1.1854931,0,0,1.2270861,-1.3709295,920.82588)" />
    <rect
       style="fill:#cccccc;fill-opacity:1;stroke:#000000;stroke-width:0;stroke-miterlimit:4;stroke-opacity:1;stroke-dasharray:none"
       id="rect3091"
       width="368.9545"
       height="242.91792"
       x="-6"
       y="759.04907" />
    <rect
       style="fill:#cccccc;fill-opacity:1;stroke:#000000;stroke-width:0;stroke-miterlimit:4;stroke-opacity:1;stroke-dasharray:none"
       id="rect3093"
       width="210.05812"
       height="370.27771"
       x="72.710289"
       y="692.17285" />
    <rect
       style="fill:#cccccc;fill-opacity:1;stroke:#000000;stroke-width:0;stroke-miterlimit:4;stroke-opacity:1;stroke-dasharray:none"
       id="rect3095"
       width="22.137272"
       height="16.22731"
       x="244.39713"
       y="698.07373" />
    <path
       style="fill:#f9f9f9;fill-opacity:1;stroke:#000000;stroke-width:0;stroke-miterlimit:4;stroke-opacity:1;stroke-dasharray:none"
       id="path2990"
       d="m 155.14426,304.40191 c 0.1455,-2.21875 0.29277,-4.47885 0.0188,-6.69146 -0.45864,-2.27518 -0.62823,-4.58117 -0.76403,-6.89313 -0.11935,-2.20008 -0.14344,-4.40358 -0.15714,-6.60635 0.15512,-2.01814 -0.36547,-3.97102 -0.5729,-5.96299 -0.15187,-2.42873 -0.16573,-4.84107 -0.69335,-7.22001 -0.36245,-1.7652 -0.4909,-3.52685 -0.99741,-5.25345 -0.33441,-1.9631 -0.46543,-3.91771 -0.98359,-5.8399 -0.35219,-1.86149 -0.94449,-3.65365 -1.30177,-5.51566 -0.61893,-1.51573 -1.00068,-3.07718 -1.59123,-4.59674 -0.3268,-1.65234 -0.87505,-3.21672 -1.29991,-4.84095 -0.67509,-0.83766 -0.75635,-1.91996 -1.10193,-2.8894 -0.15518,-0.43535 -0.41054,-0.8291 -0.58484,-1.25715 -0.39307,-2.34437 -0.96881,-4.65378 -1.37757,-6.99814 -0.55748,-1.81 -1.24785,-3.57292 -1.76725,-5.39384 -0.70213,-0.9773 -0.85171,-2.17438 -1.24335,-3.27092 -0.16329,-0.4572 -0.42394,-0.8743 -0.60677,-1.32403 -0.30452,-1.9251 -1.05138,-3.70906 -1.44774,-5.6142 -0.26753,-1.66 -0.90938,-3.24225 -1.44977,-4.83358 -0.0896,-0.32241 -0.14893,-0.65477 -0.26865,-0.96724 -0.18947,-0.49452 -0.5022,-0.93569 -0.69217,-1.43003 -0.31374,-0.81643 -0.43723,-1.63548 -0.84139,-2.4127 -0.72047,-1.54613 -0.99914,-3.3016 -1.81645,-4.79437 -0.77597,-1.67823 -1.27621,-3.46268 -1.96214,-5.17506 -0.45085,-2.15751 -1.38073,-4.1426 -1.89348,-6.2828 -0.68521,-1.47088 -1.06628,-3.02464 -1.65515,-4.52759 -0.38074,-1.62058 -1.08431,-3.08845 -1.4402,-4.72072 -0.60734,-0.90018 -0.67224,-1.99939 -0.99864,-2.99599 -0.1438,-0.43906 -0.39065,-0.83808 -0.55852,-1.26851 -0.39084,-1.85701 -1.03617,-3.63638 -1.41355,-5.50301 -0.63157,-1.47756 -1.00401,-3.01202 -1.58409,-4.50303 -0.38021,-1.62369 -1.0865,-3.09368 -1.44383,-4.72847 -0.54026,-1.83943 -1.16916,-3.65089 -1.67133,-5.50198 -0.077,-0.35594 -0.12578,-0.71916 -0.23093,-1.06782 -0.16016,-0.53105 -0.43923,-1.02027 -0.61263,-1.54714 -0.27167,-0.82547 -0.37639,-1.64113 -0.75737,-2.42402 -0.43504,-1.55393 -1.07614,-3.01743 -1.53224,-4.56211 -0.0655,-0.29991 -0.10084,-0.60803 -0.19652,-0.89972 -0.14372,-0.43811 -0.41015,-0.82896 -0.55819,-1.26564 -0.26427,-0.77955 -0.34926,-1.54789 -0.72138,-2.28467 -0.53671,-2.11078 -0.72766,-4.25799 -1.30654,-6.35956 -0.53375,-1.95072 -0.68684,-3.96816 -0.77991,-5.97931 -0.95425,-1.48387 -1.39145,-3.18192 -1.70831,-4.89557 -0.38576,-2.01099 0.15454,-4.00867 0.38925,-6.00304 0.0365,-1.95676 0.46425,-3.84875 0.84281,-5.7568 0.35368,-1.90832 0.79796,-3.8045 1.24754,-5.69355 0.45936,-1.78668 1.03043,-3.46786 1.96673,-5.06033 0.7977,-1.33644 1.61627,-2.6562 2.39284,-4.00636 0.84095,-1.629542 1.78952,-3.183138 2.55862,-4.852234 0.82709,-1.75397 1.64942,-3.508754 2.5701,-5.215826 0.81701,-1.206713 1.60979,-2.441162 2.24746,-3.75306 0.75364,-1.238891 1.49803,-2.482148 2.30489,-3.686481 0.76272,-1.430706 1.82344,-2.536477 3.0866,-3.51502 1.23552,-0.979195 2.3658,-2.090715 3.60703,-3.060479 1.0275,-1.148507 2.21096,-2.080857 3.39695,-3.043723 1.31084,-0.785755 2.60117,-1.824056 4.11766,-2.178017 1.56388,-0.587688 3.04044,-1.394583 4.65963,-1.828062 1.54034,-0.791881 3.20988,-1.16492 4.79295,-1.836124 1.52844,-0.587117 3.05115,-1.182672 4.60367,-1.739851 1.73746,-0.828536 3.65962,-0.85994 5.4941,-1.247482 1.76507,-0.56757 3.58273,-0.854402 5.4241,-1.0122 11.82125,-0.444977 23.75755,-0.124637 35.52112,-0.124794 0.38486,5.37e-4 0.77299,-0.04847 1.15458,0.0016 0.69124,0.09071 1.34181,0.381315 2.02131,0.537239 0.97469,0.223659 1.79619,0.297855 2.72831,0.684576 1.83791,0.645255 3.79129,0.723258 5.71859,0.781919 1.64876,0.74234 3.41404,0.897711 5.19389,0.975784 2.171,0.132332 4.36905,-0.1936 6.49293,0.313026 2.06262,0.495499 4.17908,0.628496 6.29124,0.695789 1.30778,0.191534 2.7018,-0.18258 4.00187,0.02664 0.61715,0.09932 1.18929,0.386034 1.78941,0.560964 1.12496,0.180022 2.24039,0.398356 3.22047,1.015473 0.86944,0.767201 0.42208,0.448674 1.32331,0.981394 1.14691,1.178832 2.38007,2.105192 3.12661,3.608987 0.89787,0.775884 1.02319,1.933264 1.41973,2.96894 0.16982,0.443528 0.43134,0.847428 0.61186,1.286709 0.39838,1.634209 1.09944,3.123722 1.45535,4.774153 0.82705,1.510341 1.06411,3.227943 1.24739,4.914419 0.61144,1.609168 0.8482,3.310068 1.0103,5.013012 0.14986,1.988001 0.15118,3.983102 0.15753,5.975537 0.0968,1.979795 -0.035,3.915375 -0.42533,5.855015 -0.1922,1.67978 -0.70997,3.28056 -1.11733,4.91226 -0.25791,1.6239 -0.84837,3.15806 -1.15468,4.77073 -0.42024,1.70587 -0.88703,3.40544 -1.41021,5.08396 -0.38007,1.73534 -0.96488,3.41294 -1.42042,5.1272 -0.53458,1.56194 -0.95193,3.17123 -1.53696,4.71582 -0.44213,1.46917 -1.0187,2.89717 -1.45441,4.36781 -0.55501,1.52638 -0.96891,3.10646 -1.54575,4.62477 -0.48154,1.52927 -1.01302,3.03669 -1.56644,4.54241 -0.64189,1.47777 -1.36169,2.91129 -2.08565,4.35019 -0.946,1.28987 -1.97456,2.52665 -2.75906,3.92332 -0.73654,1.18384 -1.47168,2.40382 -1.98889,3.70231 -0.51296,1.47128 -1.12436,2.90317 -1.77398,4.31808 -0.72346,1.35857 -1.20835,2.81041 -1.80714,4.22292 -0.57344,1.43257 -1.15074,2.87685 -1.87605,4.24074 -0.62904,1.39141 -1.16157,2.83148 -1.70755,4.26041 -0.61739,1.3939 -1.32789,2.7414 -1.94309,4.13558 -0.79944,1.51477 -1.39131,3.1432 -2.01713,4.73952 -0.62757,1.43761 -1.35389,2.8267 -1.98578,4.26154 -0.68274,1.32634 -1.38963,2.64325 -1.99891,4.00568 -0.83024,1.48054 -1.49815,3.04561 -2.22199,4.5798 -0.69555,1.6481 -1.3219,3.33451 -2.12482,4.93438 -0.56323,1.4117 -1.31067,2.70519 -2.16815,3.95234 -0.83452,1.39604 -1.66586,2.81146 -2.58674,4.15405 -0.76497,1.4064 -1.61123,2.74347 -2.55286,4.037 -0.87755,1.32304 -1.81381,2.59363 -2.79441,3.84086 -0.9084,1.41631 -1.84173,2.81117 -2.68667,4.26887 -0.78833,1.55996 -1.41773,3.1978 -2.21442,4.75241 -0.6695,1.36464 -1.26396,2.77221 -1.9982,4.10373 -0.59731,1.31841 -1.16387,2.67646 -1.596,4.06142 -0.53527,1.497 -1.05068,2.95847 -1.28397,4.53643 -0.0416,1.79605 -0.44288,3.53178 -0.78805,5.28425 -0.1423,1.72035 -0.60188,3.37366 -0.97688,5.05017 -0.23685,1.74454 -0.44349,3.471 -0.84972,5.18713 -0.43724,1.72879 -0.43237,3.51825 -0.65287,5.27675 -0.39686,1.66521 -0.67682,3.34172 -0.81737,5.04714 -0.0242,1.7888 -0.54851,3.50822 -0.8267,5.26355 -0.27349,1.86463 -0.19792,3.7531 -0.38673,5.62345 -0.3582,1.69332 -0.64282,3.38995 -0.78388,5.11529 -0.12336,1.92443 -0.12407,3.8539 -0.12996,5.78143 -0.002,2.00004 0.002,4.00008 0.004,6.00013 0.0971,1.97628 -0.0298,3.90847 -0.41699,5.84541 -0.37529,1.72244 -0.47441,3.48323 -0.54015,5.23939 0,0 -29.53246,-0.0965 -29.53246,-0.0965 l 0,0 c 0.0541,-1.9177 0.13026,-3.84269 0.48795,-5.73252 0.3577,-1.75304 0.6681,-3.4438 0.48451,-5.25308 -0.002,-2.00314 -0.005,-4.00628 -0.006,-6.00942 0.003,-1.99629 0.001,-3.99381 0.10044,-5.98817 0.11461,-1.79771 0.28973,-3.59573 0.75962,-5.34122 0.41157,-1.82259 0.0545,-3.75548 0.38881,-5.601 0.21756,-1.70763 0.72725,-3.35392 0.84877,-5.06099 0.11489,-1.80157 0.28694,-3.60624 0.78662,-5.34886 0.44979,-1.76074 0.14931,-3.65878 0.64201,-5.42837 0.37871,-1.70134 0.78593,-3.35145 0.85502,-5.10814 0.30695,-1.68045 0.91662,-3.27222 0.98131,-4.9917 0.28679,-1.71645 0.84296,-3.3669 0.80225,-5.12552 0.18294,-1.68908 0.41824,-3.41186 1.25453,-4.92098 0.3687,-1.65353 1.08754,-3.12883 1.58307,-4.7385 0.67837,-1.35268 1.45368,-2.65056 2.02195,-4.05272 0.78735,-1.58747 1.64836,-3.13793 2.30397,-4.789 0.73111,-1.54556 1.5366,-3.10939 2.60029,-4.44707 0.74877,-1.53446 2.04483,-2.59736 2.82802,-4.1098 0.91851,-1.25428 1.93774,-2.42383 2.54993,-3.86406 0.15155,-0.24932 0.30311,-0.49865 0.45466,-0.74797 0.15783,-0.18324 0.34342,-0.34583 0.47348,-0.54971 0.54585,-0.85562 0.87292,-1.87945 1.60126,-2.61594 0.60993,-1.39301 1.73983,-2.39709 2.19192,-3.86847 0.78057,-1.57745 1.63225,-3.12689 2.21546,-4.79492 0.67793,-1.63087 1.412,-3.2382 2.10823,-4.85825 0.87874,-1.18508 1.25661,-2.71843 2.00118,-3.99209 0.89644,-1.21545 1.28618,-2.7877 2.01614,-4.10733 0.93426,-1.47827 1.34182,-3.2809 1.9847,-4.89617 0.87007,-1.17536 1.2463,-2.69755 1.94159,-3.97976 0.85044,-1.27993 1.12844,-2.91375 1.70793,-4.32416 0.65544,-1.32313 1.40769,-2.60368 1.87634,-4.00674 0.17699,-0.43141 0.43523,-0.82784 0.59638,-1.26541 0.36207,-0.98312 0.45508,-2.08573 1.21141,-2.89245 0.48485,-1.42222 1.20624,-2.73288 1.78069,-4.11832 0.42865,-1.6459 1.22871,-3.04412 2.01246,-4.53465 0.96766,-1.18945 1.67866,-2.91383 2.78243,-4.07093 0.89175,-0.56902 1.46787,-2.79377 2.03063,-3.77282 0.83458,-1.27057 1.09359,-2.89759 1.56844,-4.3227 0.16794,-0.43059 0.41484,-0.82978 0.55871,-1.26901 0.32677,-0.9976 0.39219,-2.09775 0.99986,-2.99894 0.35672,-1.63356 1.06119,-3.10267 1.44178,-4.72475 0.16857,-0.43077 0.41597,-0.83011 0.56033,-1.26958 0.33291,-1.01346 0.40829,-2.12741 1.01094,-3.04991 0.3901,-1.806 1.14754,-3.47243 1.4566,-5.29692 0.45422,-1.57189 0.7783,-3.17717 1.37,-4.70515 0.24398,-1.69471 0.77864,-3.27981 1.14267,-4.9324 0.32587,-1.64683 0.98052,-3.18016 1.12174,-4.86095 0.35963,-1.75132 0.6765,-3.44003 0.48952,-5.248426 -0.0109,-1.890446 -0.0145,-3.78516 -0.19842,-5.66851 -0.20962,-1.685791 -0.66703,-3.302498 -1.01572,-4.960965 -0.23459,-1.584818 -0.75413,-3.054375 -1.27455,-4.563651 -0.42524,-1.452316 -0.98082,-2.869998 -1.47045,-4.300117 -0.58202,-1.305932 -1.04765,-2.604116 -2.02346,-3.689256 -0.92505,-0.835571 -1.86559,-1.744111 -3.00822,-2.251218 -1.34529,-0.730929 -2.90574,-0.692914 -4.37341,-1.069285 -1.86783,-0.197046 -3.7832,0.07776 -5.65709,-0.214181 -2.09679,-0.212499 -4.16433,-0.609106 -6.25869,-0.832859 -2.19816,0.04799 -4.40827,-0.0057 -6.59145,-0.280232 -1.72142,-0.28346 -3.39649,-0.889491 -5.14555,-0.911957 -1.98069,-0.259753 -3.90281,-0.733192 -5.81618,-1.30376 -1.90092,-0.217852 -3.75095,-0.727508 -5.68615,-0.479573 49.50615,-0.0023 33.51512,-0.0076 22.75106,-3.47e-4 -1.76817,0.01963 -3.56048,0.0049 -5.29149,0.413827 -0.59332,0.183604 -1.15135,0.485579 -1.75878,0.615113 -1.20965,0.25796 -2.55099,-0.02564 -3.74016,0.434452 -0.57264,0.175642 -1.10645,0.464479 -1.67934,0.6393 -1.01359,0.309299 -2.06956,0.252174 -2.87494,1.111416 -0.92713,0.219061 -1.47988,0.627048 -2.32589,0.923352 -0.7919,0.277355 -1.74904,0.146224 -2.47468,0.675104 -1.08667,0.61675 -1.56299,0.434681 -2.46059,0.879526 -0.25779,0.127758 -0.443,0.378457 -0.70417,0.499135 -0.45282,0.209224 -1.02411,0.0791 -1.43029,0.440009 -0.88511,0.5404 -1.2266,0.374746 -2.1287,0.692401 -1.43947,0.506881 0.20277,0.04327 -1.27086,0.805427 -0.19588,0.10131 -0.42882,0.103182 -0.64323,0.154773 -2.5438,1.284117 1.60898,-0.878676 -1.17504,0.829822 -0.17458,0.107136 -0.40259,0.09418 -0.58562,0.186143 -0.69212,0.34774 -0.88714,1.106213 -1.59827,1.422839 -1.02244,1.245579 -2.36403,2.264405 -3.63874,3.229614 -0.1141,0.116872 -0.96132,1.002921 -1.12942,1.106422 -0.16125,0.09928 -0.37599,0.07469 -0.54516,0.159775 -0.63256,0.318148 -0.72522,1.014544 -1.31959,1.3712 -0.70115,1.279065 -1.52343,2.460443 -2.30466,3.672057 -0.9251,1.19867 -1.34971,2.758266 -2.28904,3.968404 -1.27238,1.285424 -1.65739,3.141335 -2.70293,4.597569 -0.67811,1.703277 -1.29513,3.467227 -2.39224,4.948007 -0.31548,0.80899 -0.7197,1.3579 -1.14212,2.08418 -0.41792,0.71856 -0.6122,1.56319 -1.3045,2.10803 -0.30738,0.60833 -0.43871,0.95091 -0.8529,1.47736 -0.1129,0.1435 -0.31048,0.22333 -0.38433,0.39032 -0.35245,0.79695 -0.24669,1.82069 -0.72038,2.5903 -0.67193,1.68848 -0.8236,3.60672 -1.23355,5.37151 -0.32739,1.8478 -0.94318,3.62559 -0.91622,5.52372 -0.16282,1.68299 -0.56442,3.41117 -0.33462,5.0849 0.43267,1.83834 1.37449,3.48492 1.69165,5.35187 0.0985,1.82077 0.27808,3.63642 0.7556,5.40315 0.45619,2.0095 0.56661,4.1072 1.40589,6.01264 0.46116,1.54058 1.02293,3.04035 1.47285,4.58403 0.54176,1.47808 0.97679,2.98486 1.52033,4.46226 0.50326,1.75159 1.07716,3.48083 1.50566,5.25277 0.56762,1.8711 1.20579,3.72025 1.76925,5.59288 0.43751,1.47655 1.01736,2.90955 1.45182,4.38786 0.59591,1.61463 1.00622,3.29862 1.5203,4.9398 0.40576,1.7053 0.92361,3.39032 1.48204,5.05038 0.57658,1.51741 0.99039,3.09655 1.54489,4.62211 0.43532,1.47019 1.01173,2.89752 1.44969,4.36753 0.59963,1.59919 1.01848,3.26609 1.57272,4.88123 0.53583,1.99987 1.21526,3.96804 1.8711,5.92906 0.63086,1.69925 1.29411,3.38446 2.01644,5.04751 0.58491,1.63905 1.21157,3.26071 1.85301,4.8786 0.53559,1.66507 1.20869,3.27038 1.75256,4.93258 0.62107,1.68621 1.18005,3.40234 1.46112,5.1825 0.42642,1.72926 0.94415,3.44817 1.49294,5.13829 0.63615,1.60067 1.11952,3.26146 1.77414,4.85612 0.61778,1.90175 1.33039,3.77967 1.67191,5.75939 0.36934,2.14482 0.81193,4.30981 1.55975,6.35503 0.60357,1.47459 1.07951,3.00294 1.67729,4.47941 0.46753,1.52436 0.78166,3.08357 1.30083,4.58982 0.6035,1.65347 1.01296,3.37867 1.51394,5.06431 0.40205,1.81518 0.99544,3.58112 1.3352,5.4115 0.41805,1.91456 0.46637,3.88627 1.02098,5.77247 0.43865,1.8062 0.53674,3.66283 0.91037,5.48317 0.37571,2.44695 0.26749,4.92335 0.64059,7.37176 0.34521,2.10243 0.76945,4.20137 0.62289,6.34487 -0.003,2.14777 -0.0121,4.29666 0.0812,6.44293 0.12991,2.26931 0.44012,4.51393 0.77172,6.7618 0.20198,2.32735 0.0145,4.66673 0.25799,6.99331 0,0 -29.71148,0 -29.71148,0 z"
       inkscape:connector-curvature="0"
       transform="translate(0,694.36218)" />
    <path
       style="fill:#f9f9f9;fill-opacity:1;stroke:#000000;stroke-width:0;stroke-miterlimit:4;stroke-opacity:1;stroke-dasharray:none"
       id="path2992"
       d="m 232.85574,74.598086 c -0.13749,1.985337 0.3861,3.969926 0.61532,5.945073 0.62952,1.705529 0.93614,3.484129 1.12373,5.284453 0.18772,1.702576 0.70173,3.3396 0.92427,5.050843 6.6e-4,1.739675 0.58076,3.362468 0.87605,5.060214 0.3341,2.090392 0.2915,4.210151 0.31853,6.319511 0.0283,2.17491 0.0376,4.34999 0.0428,6.52505 0.0983,1.98977 -0.026,3.93543 -0.41644,5.88561 -0.36573,1.74202 -0.40798,3.5189 -0.7954,5.25621 -0.49223,1.67136 -0.56258,3.41386 -0.81386,5.12586 -0.47503,1.69533 -0.65534,3.44427 -0.97801,5.16813 -0.5392,2.05993 -0.72908,4.18134 -1.18086,6.2577 -0.35999,1.78996 -0.67839,3.57172 -1.17507,5.33018 -0.2767,1.6179 -0.78255,3.17565 -1.18083,4.76379 -0.25664,1.62334 -0.84287,3.15827 -1.14719,4.77062 -0.41879,1.70683 -0.88551,3.4071 -1.40872,5.0862 -0.42597,1.80195 -0.93738,3.57136 -1.55424,5.31762 -0.69017,1.8338 -1.31813,3.68989 -1.94883,5.54478 -0.68916,1.70164 -1.36749,3.40528 -1.99375,5.13093 -0.66191,1.47607 -1.13535,3.02137 -1.70658,4.53319 -0.66108,1.42251 -1.1377,2.91732 -1.73764,4.36439 -0.74247,1.78949 -1.40849,3.61289 -2.2668,5.35211 -1.32774,2.74953 -2.3262,5.62577 -3.40626,8.47559 -0.6626,1.83094 -1.33462,3.67798 -2.21375,5.41845 -0.66243,1.34544 -1.25737,2.73076 -1.98829,4.04089 -0.77199,1.29867 -1.58742,2.5698 -2.40134,3.84692 -0.83637,1.47482 -1.83862,2.82842 -2.83512,4.19417 -0.93665,1.12882 -1.99195,2.13338 -3.00486,3.19028 -1.01472,1.26051 -2.0175,2.53895 -2.99793,3.82925 -0.94792,1.11993 -2.03477,2.10657 -2.99657,3.21131 -1.1063,0.82226 -1.6925,2.09816 -2.57089,3.12965 -5.41174,10.05497 -28.01055,11.03495 -32.08824,0.0861 -0.52337,-1.5487 -1.17221,-3.05977 -1.71707,-4.6185 -0.39409,-1.82406 -1.16544,-3.49862 -1.56508,-5.32273 -0.45436,-2.11878 -0.85092,-4.24501 -1.11423,-6.40069 -0.5302,-2.10882 -0.91041,-4.24101 -1.12829,-6.40351 -0.58263,-1.68204 -0.8603,-3.42911 -1.03141,-5.19374 0.0542,-1.79284 -0.28635,-3.47594 -0.64664,-5.21241 -0.38097,-2.06222 -0.56377,-4.12355 -0.20705,-6.19019 0.72887,-2.43622 1.23288,-4.9198 1.5129,-7.44505 0.22934,-2.10182 0.101,-4.21912 0.32625,-6.31825 0.35227,-1.95931 0.61836,-3.92636 0.75512,-5.9122 0.10873,-1.96443 0.10981,-3.93263 0.11438,-5.89942 9.4e-4,-1.99836 -0.003,-3.99671 -0.005,-5.99506 -0.002,-2.00042 -0.002,-4.00084 -0.002,-6.00126 -0.0214,-2.15146 0.0391,-4.30169 0.0405,-6.453 -0.009,-2.17138 -0.0247,-4.34272 -0.0329,-6.5141 -0.14387,-1.32717 0.17615,-2.71844 -0.007,-4.03968 -0.0813,-0.58643 -0.36268,-1.12742 -0.52379,-1.69711 -0.72124,-2.29558 -1.10906,-4.66321 -1.32936,-7.05304 0.0662,-1.84783 -0.49514,-3.58749 -0.79402,-5.38931 -0.27967,-1.93415 -0.31759,-3.89109 -0.348,-5.84168 -0.0198,-2.00281 -0.0132,-4.00576 -0.0105,-6.00863 -0.0168,-1.71164 -0.53131,-3.37163 -0.74605,-5.07428 -0.33434,-1.841741 0.0193,-3.77162 -0.39422,-5.59011 -0.56823,-1.609368 -0.38503,-3.389708 -0.90215,-4.993025 -0.44433,-1.579793 -0.66365,-3.167559 -1.17334,-4.723302 -0.20557,-0.591395 -0.25512,-1.578805 -0.83952,-1.986719 -0.23097,-0.161225 -1.04634,0.351726 -0.76476,0.359496 9.74626,0.268954 19.49829,0.254819 29.24743,0.382228 -1.28873,-0.65798 -1.49245,0.844774 -1.7709,1.786685 -0.67894,1.544494 -0.83583,3.215883 -1.14942,4.852016 -0.49349,1.89121 -0.65485,3.841538 -1.14106,5.73234 -0.5106,1.681282 -0.61494,3.436041 -1.05994,5.131291 -0.38757,1.8778 -0.67698,3.75908 -1.15617,5.61805 -0.33215,1.70109 -0.58198,3.39996 -1.01831,5.08028 -0.39441,2.05193 -0.67579,4.12134 -1.0587,6.17949 -0.17676,1.90008 -0.68023,3.72951 -1.10017,5.58234 -0.85193,2.07358 -1.68408,4.10195 -2.11341,6.31298 -0.52021,2.0229 -0.95649,4.05321 -1.17503,6.13123 0.0135,2.49995 -0.90891,4.83853 -1.46558,7.24544 -0.48335,2.1744 -0.61799,4.3981 -0.68539,6.61749 -0.0396,2.00001 -0.0264,4.0006 -0.021,6.00087 0.006,1.99732 0.008,3.99466 0.01,5.99199 -0.18148,1.80881 0.1296,3.49916 0.48734,5.25165 0.27847,1.73303 0.34408,3.44742 0.80266,5.14075 0.36958,1.66565 1.00602,3.23306 1.68485,4.78659 0.60668,1.56006 1.75974,2.71852 2.69414,4.05332 0.68552,1.21598 1.46353,2.58713 2.59644,3.43581 0.60584,0.60727 1.12776,1.57498 1.92936,1.95825 1.17383,0.56123 -0.0386,-0.38733 1.14557,0.68886 0.19643,0.0975 0.41624,0.15771 0.58929,0.2924 0.21797,0.16965 0.35363,0.42837 0.56508,0.60609 0.81284,0.68316 1.77313,1.07157 2.5611,1.79064 0.9154,0.52296 1.8949,0.88813 2.7458,1.51946 2.41585,1.79244 -0.94048,-0.33976 1.22375,0.99362 0.62614,0.40489 1.4384,0.15324 2.09808,0.35271 0.2743,0.083 0.49574,0.28979 0.75712,0.40729 0.60244,0.27082 0.84109,0.28454 1.48037,0.41766 0.26285,0.0305 0.5257,0.12207 0.78855,0.0915 0.25288,-0.0294 0.97038,-0.264 0.71581,-0.26633 -9.5258,-0.0873 -19.0524,0.018 -28.5786,0.0108 -0.25268,-1.9e-4 0.50557,-0.0106 0.75737,-0.0316 0.20561,-0.0172 1.72151,-0.21802 1.82585,-0.23165 1.80515,-0.0273 3.64482,-0.91554 5.27786,-1.68399 1.53359,-0.5646 2.92805,-1.42045 4.40893,-2.1047 1.40321,-0.95084 2.84686,-1.83573 4.18926,-2.87836 1.16309,-1.19761 2.31427,-2.40389 3.38079,-3.6896 1.09555,-1.60588 2.33613,-3.08519 3.39949,-4.71416 1.68619,-2.57861 3.38438,-5.14971 5.07969,-7.72322 1.00127,-1.76051 2.10785,-3.4581 3.11795,-5.21315 0.94201,-1.42323 1.88147,-2.84713 2.79761,-4.28617 0.66077,-1.42141 1.69418,-2.60932 2.44765,-3.97109 0.84882,-1.13747 1.28375,-2.50122 1.81526,-3.80254 0.37831,-1.53452 0.86285,-3.04351 1.24896,-4.57691 0.25978,-1.85758 0.54202,-3.70105 0.90113,-5.54424 0.36986,-1.89776 0.46383,-3.83031 0.52249,-5.75795 -0.0924,-1.11498 0.20336,-2.25865 0.10154,-3.36985 -0.0908,-0.9915 -0.62755,-2.08975 -0.93037,-3.02964 -0.64181,-1.94907 -0.90692,-4.07384 -1.80458,-5.92682 -0.12722,-0.1266 -0.21336,-0.31746 -0.38166,-0.3798 -0.324,-0.12001 -1.1022,0.69719 -0.75686,0.70822 9.67433,0.30876 19.35703,0.31374 29.03627,0.2961 0.17051,-3.1e-4 -0.20609,-0.32209 -0.37456,-0.34834 -0.18111,-0.0282 -0.33857,0.14058 -0.50786,0.21087 -1.3548,0.49628 -2.38185,1.8461 -3.16418,3.01222 -1.2539,1.58196 -2.47737,3.19073 -3.61571,4.85771 -0.87585,1.36429 -1.60839,2.8036 -2.42163,4.2046 -0.79063,1.51862 -1.79137,2.89044 -2.79034,4.272 -1.03743,1.31347 -2.38997,2.29211 -3.36871,3.65045 -1.12277,1.84677 -2.4295,3.56801 -3.56393,5.40893 -0.87605,1.47742 -2.00621,2.75828 -3.07052,4.0929 -1.65335,1.33206 -2.59386,3.02139 -3.25172,5.00115 -0.47716,2.14594 -0.8657,4.32023 -1.59616,6.39809 -0.51217,1.51516 -1.22317,2.9342 -1.73894,4.44797 -0.7995,1.56319 -0.9971,3.30586 -1.4281,4.98449 -0.13272,1.19745 -1.26427,3.29678 -0.3137,4.32942 0.1111,-0.016 0.24138,0.0164 0.33331,-0.048 0.15805,-0.11075 0.56315,-0.43757 0.37031,-0.44505 -9.6933,-0.37602 -19.39483,-0.50803 -29.09408,-0.66921 -0.17097,-0.003 0.30668,0.16374 0.47505,0.19364 0.45684,0.0812 0.72419,-0.0363 1.15424,-0.14718 1.41329,-0.87249 2.33746,-2.17384 3.34442,-3.44977 0.79828,-1.29367 1.59047,-2.58023 2.46903,-3.82205 0.83331,-1.36455 1.56933,-2.7762 2.40155,-4.14302 1.57112,-1.48443 2.7001,-3.31025 3.54587,-5.28193 0.75024,-2.01615 1.44127,-4.0491 2.2135,-6.05659 0.70245,-1.45533 1.22793,-2.92735 1.63717,-4.48759 0.38135,-1.79488 1.38731,-3.24321 2.34803,-4.7585 1.06731,-1.57212 1.55703,-3.43452 2.0998,-5.23387 0.31499,-1.7418 0.81985,-3.43609 1.22818,-5.15603 0.24259,-1.63544 0.82906,-3.18161 1.13307,-4.80339 0.27398,-1.81435 0.28833,-3.65411 0.31047,-5.48493 -0.0621,-1.93215 0.16099,-3.88909 -0.11373,-5.80692 -0.40191,-2.00827 -0.63715,-4.03891 -0.77452,-6.08056 -0.5282,-1.66887 -0.79484,-3.38888 -0.95981,-5.12619 -0.48781,-1.91458 -0.79168,-3.86017 -0.97854,-5.82482 -0.32187,-1.99959 -0.67576,-3.97199 -0.85379,-6.007026 0.005,-2.155048 -0.359,-4.211815 -0.79289,-6.305817 -0.37386,-1.922348 -0.45338,-3.882002 -0.50713,-5.834277 -0.0382,-1.999956 -0.0307,-4.000424 -0.0283,-6.00064 -0.0986,-1.984747 0.0799,-3.911608 0.84761,-5.753122 0.67367,-1.509373 1.78077,-2.75906 2.90964,-3.945611 8.44837,-7.138753 30.74728,-11.892749 32.19007,0.411265 0.0745,1.915286 -0.90059,2.853406 -2.28994,3.900031 -0.89761,1.182079 -1.87123,2.295266 -2.79512,3.458646 -0.88952,1.486335 -2.1055,2.731909 -3.02972,4.189297 -0.90755,1.839817 -1.75212,3.719023 -2.94533,5.3959 -1.00443,1.283845 -1.98801,2.589677 -2.99884,3.87098 -1.18421,1.440303 -2.5598,2.718098 -3.84282,4.080722 -1.30438,1.362557 -2.16917,3.040179 -3.17864,4.611892 -1.19987,1.80717 -1.79202,3.8649 -2.3816,5.92681 -0.50385,2.10922 -0.81821,4.24534 -1.34826,6.34957 -0.43661,1.70964 -0.52386,3.47433 -0.58516,5.22924 0.0832,1.84649 -0.28214,3.76699 0.10957,5.58434 0.46528,1.74247 0.64711,3.53501 0.76503,5.32881 0.24648,1.496 0.95643,2.78833 1.42008,4.20824 0.44031,0.23163 0.46725,1.44656 1.00665,1.47612 0.13114,0.007 0.39228,-0.29432 0.26095,-0.2952 -29.1894,-0.19432 -37.20749,6.19732 -29.32307,-0.0324 0.34281,-1.61049 0.25622,-3.29056 0.2527,-4.92988 -0.1172,-1.37495 0.11467,-2.78248 0.005,-4.15402 -0.0657,-0.82334 -0.31777,-1.62108 -0.48388,-2.43016 -0.59666,-2.68954 -1.11657,-5.39316 -1.63991,-8.0961 -0.57713,-2.31825 -0.53812,-4.7312 -0.96557,-7.0666 -0.46616,-2.05156 -0.70974,-4.13727 -0.84942,-6.23326 -0.0755,-1.865018 -0.006,-3.69316 -0.42948,-5.513925 -0.4242,-1.826272 -0.54239,-3.699653 -0.6225,-5.566637 -0.0641,-1.999401 -0.0589,-4.000169 -0.0587,-6.000348 0.002,-2.002412 0.005,-4.004823 0.006,-6.007236 -0.13307,-1.879149 0.25056,-3.831145 -0.14388,-5.681247 -0.0754,-0.131255 -0.0888,-0.330247 -0.22624,-0.393765 -0.39946,-0.184658 -0.83186,1.248304 -0.39196,1.26071 9.78326,-0.08393 19.56653,-0.167852 29.34979,-0.251777 -0.3027,-0.373109 -0.14262,-0.374996 -0.4721,-0.08837 -0.36893,0.878852 -0.68585,2.405406 0.46062,2.786737 0.17564,0.002 0.35718,0.05116 0.52691,0.0059 0.19882,-0.05296 0.74988,-0.286648 0.54419,-0.291288 -9.65002,-0.217663 -19.30316,-0.270949 -28.95531,-0.349545 -0.17324,-0.0014 0.33615,0.08466 0.50618,0.117887 0.62552,0.122222 0.36685,0.121804 0.9758,-0.29635 1.32113,-0.854286 2.44937,-2.092323 3.34631,-3.388213 0.8838,-1.313486 -0.57817,2.068424 0.0547,2.092163 26.22198,0.983526 38.25079,-4.443783 28.82001,-0.245075 -1.1409,0.400579 -2.17046,1.480292 -2.99349,2.379789 0,0 -29.55034,-2.468895 -29.55034,-2.468895 l 0,0 c 1.26748,-0.907388 -0.27919,0.277787 1.0208,-1.031677 0.65313,-0.657898 1.43938,-1.184561 1.92637,-1.997458 8.46032,-6.097488 2.35497,-1.812068 30.31896,-1.08318 0.65496,0.01707 0.46035,3.194881 0.3138,3.632709 -0.0874,0.260978 -0.27756,0.475319 -0.41633,0.712978 -0.87198,0.943503 -1.41521,2.136382 -2.2883,3.074171 -0.14487,0.155611 -0.3619,0.23226 -0.50531,0.38922 -0.1917,0.209807 -0.32577,0.465768 -0.48866,0.698652 -0.33464,0.267214 -1.36495,1.669088 -1.59375,1.671241 -17.97748,0.169171 -24.68306,7.540998 -31.16827,-1.734547 -0.80997,-1.871002 -1.00958,-3.781537 -0.54571,-5.784942 0.0242,-0.109033 0.41638,-1.948688 0.48882,-1.95257 19.23707,-1.030802 28.99182,-10.004085 30.51114,2.136314 0.17599,2.022222 0.0634,4.054188 0.0925,6.082477 -0.002,2.001362 -0.005,4.002722 -0.005,6.004085 0.002,1.952171 -0.002,3.905296 0.0806,5.856116 0.0966,1.724823 0.26727,3.442795 0.66676,5.12783 0.33894,1.954606 0.26136,3.92263 0.36112,5.898482 0.13833,2.00879 0.40922,3.99861 0.80719,5.97338 0.31568,2.30581 0.32189,4.65313 0.86143,6.93025 0.58125,2.66783 0.85216,5.38837 1.54122,8.03487 0.59773,2.39529 0.85692,4.7497 0.72877,7.22122 0.0216,1.9112 0.0852,3.82818 -0.0688,5.73541 -1.51704,10.88481 0.10202,1.68989 -30.11707,1.88593 -0.23832,0.002 -0.13174,-0.45845 -0.21267,-0.68261 -0.26289,-0.72813 -0.7082,-1.36591 -0.92469,-2.11405 -0.64719,-1.61571 -1.18138,-3.26997 -1.36324,-5.01224 -0.14543,-1.73425 -0.44175,-3.43808 -0.78521,-5.14333 -0.17964,-2.02074 -0.0786,-4.05261 -0.0739,-6.07955 0.0522,-1.96736 0.12647,-3.94684 0.5671,-5.87323 0.54624,-2.13876 1.15991,-4.2383 1.54731,-6.41857 0.63311,-2.29688 1.06439,-4.65784 2.22336,-6.762395 1.01896,-1.69886 2.06535,-3.39391 3.19213,-5.026209 1.90168,-2.527763 -0.67148,0.798134 1.23449,-1.385915 0.77757,-0.891016 1.40964,-2.003569 2.56025,-2.472382 0.16237,-0.249417 0.32475,-0.498834 0.48713,-0.74825 0.17258,-0.182091 0.37103,-0.342765 0.51774,-0.546271 0.62839,-0.871607 1.06411,-1.93382 1.99737,-2.551568 1.09349,-1.587121 2.34879,-3.044716 3.05864,-4.88313 0.36268,-1.001672 0.70712,-2.001517 1.41919,-2.822365 0.1514,-0.174527 0.36857,-0.285332 0.51453,-0.464434 2.22302,-2.727813 -1.07238,0.943403 0.98305,-1.306309 0.74381,-1.367121 1.71387,-2.547553 2.73418,-3.693262 0.24581,-0.453259 0.49131,-1.030205 0.91228,-1.372005 0.12538,-0.101798 0.31921,-0.08452 0.45026,-0.178898 0.71467,-0.514699 0.43754,-0.683863 0.69817,0.521714 -0.0125,0.253061 -0.0106,0.507236 -0.0374,0.759183 -0.0202,0.189969 -0.29431,0.563172 -0.10327,0.563741 9.67155,0.02883 19.34133,-0.277324 29.01086,-0.477571 0.18638,-0.0039 -0.36374,-0.140312 -0.54799,-0.111869 -0.45362,0.07003 -0.86333,0.529566 -1.16918,0.80239 -1.28958,0.350768 -1.85175,1.513534 -2.81308,2.335412 -0.18494,0.361482 -0.46483,0.674015 -0.61614,1.050812 -0.43658,1.087209 -0.3008,2.292405 -0.3221,3.428729 -0.001,1.968612 -0.007,3.93762 0.0426,5.905763 0.0631,1.792016 0.16327,3.5875 0.52684,5.34843 0.41227,2.179806 0.53411,4.363938 0.65168,6.576717 0.25045,2.023482 0.86074,3.978222 0.95992,6.020912 0.20553,1.96097 0.61424,3.87698 1.02075,5.80429 0.21164,1.76641 0.67231,3.47693 0.91659,5.23687 0.14093,1.99168 0.41498,3.96352 0.77006,5.92842 0.21669,2.05647 0.104,4.12553 0.12505,6.19138 -0.0152,1.97947 -0.0275,3.96444 -0.25612,5.93336 -0.24214,1.69962 -0.77667,3.29096 -1.13135,4.95103 -0.35498,1.81671 -1.04752,3.5213 -1.30076,5.35953 -0.57052,2.06088 -1.1997,4.13463 -2.09563,6.07062 -0.32068,0.50882 -0.59083,1.04844 -0.91337,1.55608 -0.13726,0.21604 -0.28529,0.42806 -0.46144,0.61377 -0.11545,0.1217 -0.32348,0.15242 -0.40463,0.29923 -0.26369,0.47708 -0.15,1.10517 -0.47509,1.56476 -0.64138,1.49023 -0.57917,3.27462 -1.69234,4.58022 -0.71307,2.05069 -1.70748,3.99084 -2.43534,6.04151 -0.73251,2.36487 -1.8333,4.52245 -3.33806,6.49386 -1.33602,0.54048 -1.29777,2.46234 -2.33671,3.39155 -0.67846,1.51883 -1.90099,2.62502 -2.544,4.16943 -0.17127,0.26412 -0.34253,0.52824 -0.5138,0.79235 -0.18509,0.20425 -0.39469,0.38872 -0.55528,0.61275 -0.70598,0.9849 -1.22411,2.15832 -2.27262,2.8536 -6.71633,8.95687 -29.05151,10.70572 -32.39914,-0.5359 -0.40631,-2.05177 -0.12877,-4.07959 0.40872,-6.09204 0.51053,-1.79702 0.6405,-3.66202 1.35736,-5.39306 0.40248,-0.72484 0.50648,-1.49655 0.82447,-2.2605 0.0983,-0.2361 0.22434,-0.45966 0.3365,-0.68949 0.11609,-0.17404 0.2621,-0.33149 0.34827,-0.52213 0.12446,-0.27532 0.18518,-0.57522 0.27777,-0.86283 0.81015,-1.9695 1.45941,-4.0051 1.8076,-6.11796 0.55976,-2.37979 1.41527,-4.68698 3.04959,-6.54824 1.24014,-0.89228 2.25391,-2.3511 3.16432,-3.56784 1.32936,-1.60968 2.20455,-3.57195 3.58558,-5.158 0.47797,-0.96747 0.93026,-2.00981 1.68227,-2.80731 0.17059,-0.18091 0.383,-0.31724 0.5745,-0.47587 0.17042,-0.1212 0.36465,-0.21448 0.51126,-0.36361 0.18882,-0.19206 0.32202,-0.43182 0.48302,-0.64773 1.19854,-0.92737 2.07441,-2.34998 2.78606,-3.66728 0.86716,-1.37777 1.48977,-2.86641 2.47051,-4.16276 0.98749,-1.91111 2.47772,-3.47746 3.6929,-5.24806 1.17748,-1.23284 0.0894,0.0561 1.06691,-1.72052 0.38265,-0.69546 0.97545,-1.14874 1.48546,-1.70231 0.19094,-0.20726 0.32091,-0.46333 0.48137,-0.695 0.16226,-0.12829 0.35445,-0.22588 0.48678,-0.38486 0.20395,-0.24503 0.18929,-0.80405 0.50803,-0.81031 15.90498,-0.31222 27.28848,-8.62808 31.07913,2.69885 0.6163,2.02782 1.17092,4.07288 1.70794,6.1226 0.69908,2.41492 1.1228,4.83261 0.9151,7.36041 -0.0612,2.08146 -0.16099,4.16721 -0.52635,6.22153 -0.34448,1.87544 -0.67609,3.73077 -0.82532,5.63451 -0.32734,1.67985 -0.97667,3.23997 -1.23205,4.93295 -0.47868,1.56321 -1.15569,3.07018 -1.82309,4.55533 -0.77129,0.90329 -0.0674,-0.0107 -0.77062,1.29123 -0.46448,0.86 -1.25638,1.49831 -1.71813,2.36964 -0.75728,1.65819 -1.94414,3.03085 -2.84006,4.61877 -1.30822,1.56085 -2.14324,3.53893 -3.34663,5.18469 -1.71029,2.46316 -3.37087,4.95688 -5.05223,7.43418 -0.83604,1.84349 -1.80281,3.55083 -3.19244,5.01762 -0.91191,1.5899 -2.13425,2.93154 -3.44584,4.19169 -0.60628,0.78214 -1.27577,1.6211 -2.13013,2.15825 -0.21728,0.13661 -0.50088,0.14885 -0.71029,0.29724 -2.85491,2.02304 1.39136,-0.51014 -1.35717,1.07418 -1.17498,0.99858 -3.03991,2.01233 -4.47205,2.5594 -0.57712,0.25762 -1.09732,0.63305 -1.67756,0.88355 -1.2774,0.55147 -2.71634,0.73826 -3.77304,1.7728 -0.80343,0.0469 -1.68642,0.31162 -2.4743,0.31909 -30.30458,0.28724 -20.75736,3.4708 -31.61985,-0.4727 -1.54769,-0.62298 -3.2126,-0.89754 -4.46744,-2.09842 -1.24152,-0.97645 -2.75816,-1.52824 -3.93353,-2.61179 -1.3451,-0.78249 -2.50791,-1.83342 -3.7772,-2.71729 -1.26703,-0.78984 -2.06935,-2.11254 -3.11737,-3.15066 -0.88355,-1.24331 -1.76921,-2.47794 -2.58086,-3.76963 -1.11613,-1.4449 -1.9302,-3.08882 -2.69829,-4.73887 -0.70346,-1.70331 -1.25004,-3.48245 -1.71409,-5.26384 -0.38744,-1.73913 -0.4294,-3.5178 -0.79486,-5.26169 -0.38722,-1.9349 -0.51492,-3.86517 -0.42066,-5.83953 -0.002,-1.99578 -0.005,-3.99156 -0.01,-5.98734 -0.004,-2.03824 -0.015,-4.07709 0.047,-6.11466 0.1008,-2.40861 0.29897,-4.81654 0.83702,-7.17293 0.52119,-2.28507 1.29193,-4.52557 1.29887,-6.88616 0.21865,-2.16032 0.59683,-4.29291 1.22845,-6.37453 0.39706,-2.18124 0.90212,-4.43321 1.99647,-6.37832 0.36277,-1.85681 1.06105,-3.61431 1.19778,-5.51447 0.39551,-2.11268 0.78143,-4.20814 0.93996,-6.35605 0.40379,-1.69775 0.87139,-3.34354 1.0436,-5.09177 0.4596,-1.85374 0.99326,-3.65682 1.18085,-5.57124 0.36729,-1.75012 0.63608,-3.505472 1.03157,-5.25555 0.55644,-1.812653 0.77488,-3.664416 1.17844,-5.519644 0.38763,-1.744816 0.36017,-3.584924 1.07164,-5.258523 0.67051,-1.53934 0.5988,-3.404417 1.81157,-4.718536 22.14213,0.155566 27.82058,-8.527938 31.52806,4.292613 0.47527,1.626595 0.68273,3.313465 1.1624,4.940951 0.29921,1.739359 0.48865,3.496426 0.88488,5.219962 0.19081,1.870674 0.11952,3.759527 0.39098,5.624837 0.27937,1.82265 0.79372,3.62522 0.69363,5.4859 -0.002,1.98327 -0.009,3.96671 0.0208,5.94983 0.0395,1.79836 0.0878,3.60439 0.39825,5.38069 0.35138,1.87011 0.73263,3.72602 0.69779,5.64233 0.19053,2.19989 0.55117,4.37616 1.27295,6.47165 0.6648,2.17351 0.70864,4.31978 0.60811,6.58144 -0.008,2.17139 -0.024,4.34273 -0.0329,6.51412 0.001,2.15121 0.0618,4.30135 0.0406,6.45271 1.9e-4,1.99962 4.4e-4,3.99925 0.002,5.99887 0.002,2.00148 0.006,4.00296 0.005,6.00444 -0.005,2.03043 -0.007,4.06214 -0.11528,6.0903 -0.13336,2.0408 -0.36218,4.07142 -0.76464,6.07861 -0.30625,2.08159 -0.0754,4.2156 -0.40089,6.30226 -0.3258,2.58526 -0.87199,5.12389 -1.48578,7.65523 -0.37709,1.64593 0.0718,3.38012 0.3341,5.02168 0.38432,1.82159 0.54163,3.64354 0.61884,5.5025 0.21561,1.7638 0.68638,3.46567 0.97578,5.21589 0.21816,2.13773 0.65179,4.2322 1.07244,6.33757 0.26023,2.0567 0.75451,4.04608 1.23835,6.0584 0.45604,1.66604 1.04347,3.29798 1.53703,4.95224 0.53051,1.27308 0.99553,2.71621 1.847,3.79502 0.2424,-0.0441 0.88665,-0.36623 0.6403,-0.36918 -9.69534,-0.1164 -19.39437,-0.24359 -29.0881,-0.0319 -0.24664,0.005 0.14788,0.49937 0.33529,0.6598 0.11688,0.10004 0.31624,0.0739 0.46102,0.0218 0.18538,-0.0666 0.31404,-0.23792 0.47106,-0.35688 0.82689,-1.25709 1.88411,-2.33955 2.60894,-3.68146 1.22019,-0.84548 -0.24628,0.24829 1.00035,-0.99469 0.67041,-0.66843 1.46524,-1.22211 2.00345,-2.02764 1.23788,-0.96415 2.14022,-2.4043 3.00723,-3.69251 0.94034,-1.19061 2.00879,-2.15913 2.99321,-3.28972 1.20484,-0.93657 2.08805,-2.36164 2.82618,-3.67669 0.38441,-0.58499 0.83824,-1.18606 1.18809,-1.77909 0.37156,-0.62982 0.48962,-1.38889 1.16345,-1.81103 0.67086,-1.33408 1.44077,-2.61012 2.01276,-3.98818 0.86484,-1.70054 1.80781,-3.36981 2.48032,-5.16644 1.23406,-2.82084 2.35952,-5.68515 3.33618,-8.60511 0.27093,-0.6351 0.68792,-1.20512 0.92348,-1.85416 0.13548,-0.37326 0.14255,-0.78208 0.24382,-1.16603 0.58177,-2.20578 -0.0121,0.0718 0.6281,-1.3883 0.11646,-0.26559 0.16865,-0.55495 0.25298,-0.83242 0.17503,-0.42944 0.43107,-0.82441 0.5885,-1.26061 0.35482,-0.98315 0.4444,-2.08039 1.16066,-2.91151 0.49705,-1.63171 1.19468,-3.18733 1.75744,-4.79696 0.87327,-1.5825 1.19353,-3.44305 2.01253,-5.0633 0.88354,-1.70772 1.2169,-3.6745 1.93216,-5.45828 0.68232,-1.64899 1.19434,-3.36344 1.56207,-5.10659 0.45409,-1.57165 0.77821,-3.1765 1.36854,-4.70469 0.2425,-1.69445 0.77474,-3.28064 1.13428,-4.93395 0.327,-1.66501 0.98025,-3.21252 1.18247,-4.90127 0.45322,-1.7495 1.0091,-3.4416 1.25825,-5.24355 0.53692,-2.03458 0.68661,-4.10019 1.14947,-6.15247 0.37916,-1.70571 0.35375,-3.49296 0.92943,-5.16367 0.4818,-1.6985 0.2315,-3.55581 0.80543,-5.25273 0.45843,-1.69182 0.52407,-3.40473 0.8034,-5.13614 0.36239,-1.76734 0.67396,-3.47338 0.49951,-5.29795 0.0108,-2.15798 0.0325,-4.31606 0.0136,-6.47405 -0.0376,-1.94284 -0.11329,-3.894108 -0.45557,-5.8111 -0.35862,-1.720613 -0.78595,-3.421953 -0.86582,-5.187552 -0.28204,-1.718226 -0.81781,-3.390596 -0.90782,-5.138124 -0.23149,-1.789626 -0.73562,-3.508618 -1.06088,-5.280164 -0.25064,-2.101412 -0.68124,-4.177454 -0.83403,-6.290354 0,0 29.71148,0 29.71148,0 z"
       inkscape:connector-curvature="0"
       transform="translate(0,694.36218)" />
    <path
       style="fill:#cccccc;fill-opacity:1;stroke:#000000;stroke-width:0;stroke-miterlimit:4;stroke-opacity:1;stroke-dasharray:none"
       id="path3012"
       d="m 242.58933,56.796111 c 0.79938,1.301497 1.30306,2.770657 2.09763,4.068099 0.2489,0.841429 0.81828,1.474095 1.2497,2.199277 0.21941,0.368804 0.47166,1.095274 0.61913,1.48732 0.56866,1.149962 1.22203,2.270907 1.66329,3.477618 0.41167,1.346569 0.46618,2.759589 0.50782,4.156412 0.18657,1.154454 0.75229,2.175095 1.20984,3.235287 0.61217,1.922722 1.31687,3.821143 2.00858,5.720234 0.82698,1.908308 1.24792,3.91271 1.51615,5.963139 0.0584,1.599704 0.41619,3.155694 0.65173,4.733102 0.3554,1.563726 0.94934,3.037883 1.58958,4.50268 1.00657,1.805505 1.58895,3.798661 1.95921,5.821271 0.48372,1.45511 0.57952,2.99634 0.93601,4.47605 0.29964,1.16881 0.54155,2.46278 1.2016,3.49207 0.51849,1.06415 0.71409,2.22499 1.10196,3.33546 0.23456,1.15352 0.72664,2.19707 0.97437,3.35043 0.27215,1.17003 0.64841,2.29399 0.82084,3.49702 0.48617,1.11297 0.65443,2.31534 0.77485,3.51303 -0.035,1.24191 0.35969,2.4066 0.56301,3.6181 0.2281,1.16895 0.60744,2.28813 0.77881,3.48066 0.54102,1.01094 0.46886,2.21008 0.87583,3.25052 0.24148,1.10916 0.68168,2.13467 0.99615,3.21943 0.18815,0.6473 0.22235,1.32087 0.3156,1.9836 0.0621,0.44125 0.15154,0.75319 0.17973,0.73717 0.0976,-0.0554 0.0432,-0.22025 0.0647,-0.33037 -23.07654,1.08545 -21.05276,6.52199 -20.99983,-2.95946 0.13476,-1.24979 -0.24691,-2.42617 -0.44771,-3.6438 -0.24721,-1.32719 -0.1222,-2.69095 -0.3371,-4.01733 -0.2984,-1.42045 -0.45966,-2.86049 -0.55479,-4.30706 0.064,-1.30138 -0.16619,-2.52417 -0.42539,-3.78504 -0.25303,-1.33757 -0.30468,-2.70021 -0.34167,-4.05744 -0.32716,-1.16607 -0.50457,-2.35798 -0.61471,-3.56158 -0.10392,-1.40307 -0.10766,-2.8109 -0.11348,-4.21703 0.10549,-1.38405 -0.0866,-2.7196 -0.3139,-4.07732 -0.19775,-1.3383 -0.24112,-2.6667 -0.58822,-3.97397 -0.26279,-1.190436 -0.35337,-2.379351 -0.69563,-3.547463 -0.15763,-1.173659 -0.53353,-2.267296 -0.82736,-3.40607 -0.22732,-1.220294 -0.64047,-2.377263 -1.1109,-3.517389 -0.067,-0.207434 -0.11178,-0.423392 -0.20094,-0.622303 -0.0629,-0.140337 -0.1676,-0.257904 -0.2514,-0.386856 -0.081,-0.167613 -0.17166,-0.330877 -0.24293,-0.50284 -0.22782,-0.549692 -0.30646,-1.10536 -0.59297,-1.628053 -0.39766,-1.071946 -0.9316,-2.030658 -1.21098,-3.150442 -0.39979,-0.977539 -0.91159,-1.896394 -1.25458,-2.896954 -0.42011,-1.167016 -0.9877,-2.266845 -1.38696,-3.440259 -0.50903,-0.951674 -1.0604,-1.895512 -1.42822,-2.915186 -0.43349,-1.165897 -1.00207,-2.271257 -1.40231,-3.448742 -0.50825,-0.951869 -1.05898,-1.895761 -1.42646,-2.915346 -0.4042,-0.383315 -0.47229,-0.941694 -0.70798,-1.412254 -0.24513,-0.489419 -0.51507,-0.877597 -0.70716,-1.411599 -0.68511,-0.884997 -0.83479,-2.04295 -1.47723,-2.951938 -0.59687,-0.96159 -0.91477,-2.119898 -1.58546,-3.027835 -0.0843,-0.165311 -0.16861,-0.330621 -0.25292,-0.495931 -0.0663,-0.243789 -0.092,-0.502501 -0.19901,-0.731368 -0.0703,-0.150447 -0.22423,-0.246066 -0.32112,-0.380956 -0.39389,-0.548345 -0.62669,-1.144957 -1.05149,-1.672426 -0.67228,-0.928623 -1.34909,-1.842284 -1.91832,-2.844952 -0.77443,-0.664001 -0.97242,-1.729698 -1.7383,-2.403683 -0.3865,-0.43959 -0.74521,-1.127936 -1.29575,-1.392986 -0.82669,-0.398 0.0396,0.284867 -0.79921,-0.481922 -0.95274,-0.496923 -2.09161,-0.40178 -3.13818,-0.413809 42.37983,2.943941 23.88424,-1.468418 17.35224,0.452406 -1.17936,0.304146 -2.23002,0.938849 -3.23664,1.608522 -0.95389,0.544795 -1.88247,1.173969 -2.6695,1.943593 0.19416,-0.310072 -1.57379,1.527706 -1.27251,1.092683 0.43367,0.436503 0.89442,1.028741 1.46321,1.397399 0.38739,0.550462 0.94624,0.923782 1.41645,1.386902 0.91313,0.899354 -0.17207,0.09204 0.71661,0.708436 0.35377,0.643211 1.03467,0.883077 1.59098,1.281028 1.72923,1.236969 -0.68309,-0.245519 0.93646,0.718932 0.30632,0.583085 0.84616,0.617465 1.33218,0.907487 0.45822,0.273432 0.93851,0.660011 1.3057,1.044911 0.79912,0.639428 1.63704,1.331499 2.26408,2.153159 0.87363,0.61537 -0.18177,-0.183275 0.71052,0.714452 0.1038,0.104437 0.25749,0.149723 0.36131,0.254148 0.40687,0.409265 0.55331,0.949893 0.93973,1.376192 0.55589,0.914243 1.36364,1.535853 1.83267,2.517219 0.5173,0.83837 1.27417,1.462069 1.84273,2.253212 0.8443,0.657391 1.53874,1.494906 2.07495,2.435759 0.63192,0.900394 1.48125,1.60715 2.13325,2.482105 0.48246,1.008501 1.30333,1.717639 1.76184,2.740797 1.24502,1.451971 -0.86267,-1.051905 0.55381,0.822327 0.0822,0.108737 0.21912,0.16614 0.30619,0.271002 0.35508,0.427634 0.47379,0.93916 0.83639,1.36181 0.58958,0.849383 1.17797,1.694184 1.68225,2.610448 0.56434,1.051723 0.98486,2.148164 1.43509,3.264204 0.39875,1.102657 0.5954,2.359167 1.22746,3.359894 0.38201,1.072023 0.85216,2.107538 1.18371,3.197607 0.38467,1.176223 0.94562,2.271695 1.34027,3.44189 0.0558,0.222433 0.091,0.451116 0.16755,0.667299 0.0528,0.14902 0.14528,0.28082 0.21793,0.42123 0.0701,0.173644 0.14837,0.344224 0.21036,0.520932 0.19568,0.55772 0.26045,1.110818 0.52782,1.639467 0.42319,1.09121 0.58906,2.2328 0.95849,3.3385 0.22391,1.15335 0.71663,2.19462 0.96429,3.34519 0.58672,1.06492 0.75507,2.27773 0.88545,3.46825 0.43348,1.13748 0.60084,2.34031 0.71554,3.54445 0.076,1.29151 0.04,2.55696 0.33587,3.81803 0.30114,1.29435 0.38414,2.62232 0.44053,3.9456 0.045,1.41441 0.0412,2.82977 0.041,4.24472 -0.13506,1.24877 0.24357,2.42351 0.44343,3.64009 0.19853,1.36803 0.22899,2.75206 0.25248,4.13185 -0.005,1.43647 0.0693,2.87605 -0.0569,4.30815 -0.24156,1.20634 -0.45068,2.41155 -0.55328,3.63815 -0.21794,1.23673 -0.47194,2.46985 -0.73105,3.69962 -0.37883,1.09603 -0.58178,2.22195 -0.68722,3.37303 -0.052,0.86467 -0.0306,0.42874 -0.0639,1.30783 0,0 -20.88257,-0.068 -20.88257,-0.068 l 0,0 c 0.0259,-0.9389 0.009,-0.47029 0.0509,-1.40585 0.088,-1.27533 0.21147,-2.56076 0.65454,-3.77037 0.3985,-1.04752 0.32757,-2.2408 0.76537,-3.29093 0.0832,-1.26833 0.21148,-2.53573 0.53945,-3.76799 0.27797,-1.29614 0.0153,-2.66484 0.0859,-3.98161 -0.0297,-1.27421 -0.0676,-2.55355 -0.28908,-3.81187 -0.24699,-1.32576 -0.51207,-2.64205 -0.4003,-4.00146 -0.001,-1.38122 0.002,-2.76311 -0.0562,-4.1434 -0.0677,-1.21979 -0.18628,-2.4353 -0.47303,-3.62613 -0.23817,-1.32979 -0.19702,-2.67046 -0.31855,-4.01282 -0.1483,-1.19146 -0.47192,-2.33389 -0.71956,-3.50579 -0.16725,-1.1208 -0.53847,-2.15892 -0.90423,-3.22711 -0.30757,-1.07178 -0.71387,-2.11303 -0.97119,-3.20043 -0.33239,-1.07372 -0.48507,-2.19796 -0.95971,-3.22712 -0.33416,-1.104349 -0.7413,-2.177265 -1.09986,-3.273647 -0.47027,-1.157773 -0.90077,-2.328405 -1.36401,-3.489208 -0.38908,-0.996347 -0.71235,-2.01681 -1.17877,-2.981053 -0.41239,-1.140491 -0.79129,-2.290281 -1.19139,-3.433631 -0.44477,-1.009627 -0.89052,-2.011753 -1.47632,-2.950095 -0.56959,-0.832022 -1.09743,-1.685914 -1.67928,-2.511204 -0.51073,-0.911358 -1.2258,-1.687946 -1.7008,-2.624991 -0.59625,-0.772409 -1.13589,-1.583407 -1.73487,-2.34928 -0.79579,-0.812273 -1.43337,-1.768323 -2.11409,-2.675891 -0.69288,-0.769642 -1.46899,-1.45436 -2.10735,-2.269918 -0.72655,-0.75587 -1.28292,-1.66054 -1.85471,-2.534683 -0.65444,-0.736981 -1.26778,-1.495251 -1.82474,-2.309813 -0.54212,-0.820108 -1.35386,-1.386495 -1.99822,-2.12385 -0.76082,-0.602436 -1.41872,-1.322487 -2.23331,-1.86082 -0.95103,-0.500986 -1.73813,-1.207653 -2.59407,-1.845298 -0.87952,-0.730806 -1.81477,-1.390998 -2.58763,-2.242664 -0.67458,-0.754337 -1.44184,-1.41929 -2.14379,-2.147189 -0.70052,-0.872863 -1.46672,-1.671462 -1.60193,-2.845867 -0.0546,-1.590484 0.3868,-2.096318 1.441,-3.159731 1.09542,-0.771505 -0.3699,0.310153 0.81127,-0.761515 0.61489,-0.557885 1.33026,-0.981098 1.9524,-1.537099 1.1465,-0.566843 2.09675,-1.431176 3.23517,-2.006785 0.37539,-0.152656 0.7112,-0.397442 1.09422,-0.529781 0.1874,-0.06475 0.39374,-0.04874 0.58883,-0.08412 8.4636,-1.534754 -9.34648,-7.845133 22.42617,-0.326449 1.27032,0.233418 2.41061,0.654399 3.34736,1.584628 0.89963,0.589242 1.45522,1.556299 2.13432,2.368795 0.55004,0.903529 1.13581,1.771807 1.73965,2.637088 0.63499,0.918415 1.23506,1.858685 1.85736,2.787255 0.64054,1.138633 1.30924,2.253172 1.88722,3.425458 0.47482,1.036286 1.02864,2.034699 1.5516,3.04722 0.48818,1.067619 0.99948,2.121758 1.52036,3.172039 0.48391,0.93772 0.96851,1.874648 1.41327,2.831261 0.4961,0.98595 0.98492,1.976981 1.40196,2.99951 0.46832,1.124964 0.89896,2.264669 1.42677,3.363873 0.49679,0.986224 0.98651,1.977485 1.40346,3.000663 0.47096,1.134938 0.90509,2.283266 1.41267,3.40283 0.46409,1.00623 0.9019,2.025217 1.24949,3.078739 0.3588,0.990004 0.86276,1.923264 1.21371,2.918622 0.36894,1.085874 0.86853,2.107242 1.25852,3.185347 0.46493,1.218526 0.79429,2.48724 1.13587,3.744606 0.33298,1.128707 0.55534,2.273438 0.82684,3.417174 0.29773,1.19374 0.37005,2.423736 0.68275,3.615305 0.28497,1.35891 0.29962,2.7455 0.53737,4.11279 0.24357,1.46521 0.41017,2.92134 0.32369,4.41084 0.009,1.33866 0.0152,2.67992 0.1408,4.01387 0.14471,1.24806 0.45907,2.46189 0.59608,3.70988 0.0452,1.24058 0.11228,2.48493 0.37824,3.70159 0.27402,1.34663 0.37107,2.69198 0.37668,4.06634 0.097,1.39642 0.28329,2.77991 0.55739,4.15323 0.16767,1.3126 0.13377,2.64367 0.37729,3.94894 0.24752,1.3257 0.51746,2.64203 0.41806,4.00173 0.0996,9.55447 1.45421,4.10556 -21.04783,4.00127 0.0416,-0.94552 0.003,-1.87984 -0.3277,-2.78258 -0.37929,-1.0794 -0.67732,-2.17662 -0.99387,-3.27584 -0.26276,-1.17454 -0.54107,-2.33878 -0.85986,-3.49907 -0.21802,-1.15996 -0.63902,-2.26857 -0.78182,-3.44399 -0.24588,-1.2445 -0.5314,-2.47717 -0.55058,-3.75364 -0.15557,-1.16702 -0.49735,-2.2747 -0.78439,-3.41299 -0.21435,-1.1287 -0.62611,-2.20056 -0.83283,-3.33157 -0.30538,-1.06239 -0.70805,-2.09502 -0.98177,-3.16762 -0.34854,-1.04385 -0.53459,-2.14019 -1.08785,-3.10868 -0.47144,-1.29631 -0.90039,-2.60194 -1.13837,-3.96497 -0.29644,-1.51608 -0.48829,-3.05227 -0.87419,-4.55197 -0.32465,-1.87804 -0.94353,-3.647158 -1.86381,-5.322339 -0.73741,-1.633579 -1.4623,-3.278601 -1.74552,-5.06374 -0.23043,-1.589301 -0.52746,-3.168132 -0.56188,-4.778845 -0.22764,-1.905399 -0.71008,-3.744956 -1.46039,-5.516126 -0.64786,-1.878582 -1.3202,-3.743155 -2.15549,-5.548375 -0.59759,-1.287673 -1.17057,-2.598199 -1.23801,-4.039177 -0.048,-1.154645 -0.0907,-2.335669 -0.54025,-3.417932 -0.5332,-1.142859 -1.05125,-2.291412 -1.58642,-3.433689 -0.60854,-1.181553 -1.36816,-2.280704 -1.85219,-3.531152 -0.6746,-1.46983 -1.4634,-2.871107 -2.25319,-4.281422 0,0 20.97828,-0.798622 20.97828,-0.798622 z"
       inkscape:connector-curvature="0"
       transform="translate(0,694.36218)" />
    <path
       style="fill:#cccccc;fill-opacity:1;stroke:#000000;stroke-width:0;stroke-miterlimit:4;stroke-opacity:1;stroke-dasharray:none"
       id="path3016"
       d="m 226.08351,54.574297 c -0.11814,1.245599 -0.21313,2.579657 0.0618,3.809093 0.43499,0.836427 1.23641,1.304393 1.81024,2.01684 0.89781,0.556473 1.15064,1.67483 1.93726,2.353754 0.10224,0.153976 0.18322,0.324405 0.3067,0.461927 0.0935,0.10407 0.23936,0.150614 0.33497,0.252701 0.53331,0.569468 0.82327,1.303388 1.35429,1.870705 0.6372,0.963478 1.53114,1.628573 2.05364,2.674502 0.96094,1.068861 -0.32065,-0.268855 0.66142,0.508885 0.13885,0.109967 0.21941,0.281675 0.35583,0.394656 0.36577,0.302934 0.83619,0.318903 1.28262,0.361825 0.60881,-0.09009 1.02799,0.328399 1.58762,0.480617 0.17508,0.04762 0.36696,0.0356 0.53362,0.1073 0.35261,0.151696 0.65439,0.405956 1.005,0.56221 1.09863,0.218022 1.72092,1.228425 2.76899,1.558653 0.54097,0.474162 1.16187,0.817301 1.69209,1.298146 1.11901,1.014826 -0.27931,0.0097 0.76432,0.721237 0.40255,0.563544 0.96752,0.959372 1.44607,1.441278 0.88936,0.895598 -0.15902,0.102364 0.70803,0.712958 0.38473,0.560294 0.94192,0.946652 1.41195,1.417622 0.88584,0.887621 -0.1593,0.102862 0.70629,0.707238 0.76217,0.881728 1.24461,1.97424 2.1148,2.753034 0.49461,0.991448 1.25043,1.783644 1.84956,2.693493 0.0866,0.193076 0.15123,0.397551 0.2597,0.579228 0.1083,0.181404 0.30566,0.447762 0.57028,0.407008 0.27619,-0.04254 0.8111,-0.647271 0.53165,-0.648205 -6.88028,-0.02298 -13.75783,0.278008 -20.63674,0.417012 0.0605,0.04736 0.12098,0.09471 0.18147,0.142073 0,0 21.00092,1.214711 21.00092,1.214711 l 0,0 c -0.0733,0.252479 -0.14649,0.504958 -0.21974,0.757436 -11.10475,0.387339 -17.70152,6.479192 -21.82308,-0.242665 -0.26638,-0.434446 -0.4384,-0.930685 -0.78933,-1.31131 -0.65305,-0.806038 -1.08837,-1.765122 -1.8132,-2.515867 -0.63396,-0.895902 -1.26898,-1.81684 -2.1266,-2.515697 -0.66011,-0.750919 -1.40641,-1.424808 -2.11816,-2.124023 -0.6514,-0.736419 -1.38975,-1.407865 -2.14283,-2.034141 -0.69806,-0.666461 -1.54001,-1.185315 -2.40544,-1.604082 -0.85785,-0.628294 -1.74783,-1.052307 -2.74605,-1.410225 -1.00671,-0.440323 -2.1235,-0.608602 -3.11538,-1.085722 -0.97799,-0.670272 -1.81946,-1.529874 -2.42027,-2.555654 -0.71349,-0.791137 -1.39779,-1.598303 -2.01217,-2.471428 -0.60745,-0.895889 -1.36546,-1.659351 -2.03255,-2.507569 -0.56512,-0.844321 -1.19609,-1.588271 -1.92938,-2.286087 -0.90608,-0.880715 -1.53129,-1.994448 -1.78184,-3.237643 -0.15844,-1.506403 -0.14873,-3.026956 -0.17938,-4.540429 0,0 21.00105,0.414605 21.00105,0.414605 z"
       inkscape:connector-curvature="0"
       transform="translate(0,694.36218)" />
    <path
       style="fill:#cccccc;fill-opacity:1;stroke:#000000;stroke-width:0;stroke-miterlimit:4;stroke-opacity:1;stroke-dasharray:none"
       id="path3018"
       d="m 215.09046,52.899801 c 0.63393,1.191181 1.47188,2.381205 2.4848,3.287717 0.42964,0.62358 1.04262,1.071378 1.56846,1.593909 0.89147,0.885863 -0.14196,0.110182 0.72785,0.717625 0.72087,0.832537 1.55304,1.4363 2.05734,2.445588 0.63685,0.682996 0.97272,1.6482 1.92402,1.936507 0.14887,0.01551 0.30779,-0.0095 0.4466,0.04653 0.17232,0.06951 0.29473,0.228923 0.45767,0.31823 1.48083,0.811628 -0.57399,-0.417668 0.95209,0.287217 0.62236,0.448456 0.30193,0.266485 0.95332,0.559696 0.16412,0.03995 0.34094,0.045 0.49236,0.119853 0.17931,0.08864 0.30915,0.256 0.47961,0.360649 0.70124,0.430488 0.21715,0.04119 0.95282,0.343433 0.70936,0.392993 0.34189,0.227002 1.10207,0.49878 0.66968,0.03699 1.12583,0.515623 1.73658,0.727756 0.18116,0.06293 0.38276,0.06562 0.55604,0.147822 0.6758,0.469761 0.33221,0.274493 1.02324,0.598856 0.60009,0.03824 0.9267,0.530239 1.46643,0.728953 0.15787,0.05812 0.33869,0.05041 0.48842,0.127097 0.60873,0.46984 0.29406,0.279394 0.93437,0.586985 0.58358,0.03117 0.88717,0.516955 1.41248,0.708135 0.15586,0.05672 0.33454,0.04719 0.48223,0.122681 0.60495,0.468332 0.29176,0.278831 0.92994,0.584115 0.58358,0.0306 0.88787,0.515843 1.41328,0.706805 0.1561,0.05673 0.33497,0.04728 0.4829,0.122804 0.60577,0.468268 0.29223,0.278732 0.93105,0.584172 0.16315,0.116406 0.32629,0.232812 0.48943,0.349218 0.17525,0.07829 0.36468,0.130464 0.52574,0.234873 0.18767,0.121664 0.32791,0.30608 0.5097,0.436372 0.50378,0.361066 1.01024,0.457449 1.50578,0.847231 0.57752,0.156625 0.81763,0.703151 1.34569,0.948218 0.1434,0.06655 0.31576,0.06312 0.45221,0.142958 0.56497,0.486347 0.26807,0.292106 0.87836,0.601191 0.5638,0.398061 0.95737,1.102636 1.58357,1.408835 0.8488,0.415045 -0.007,-0.254383 0.83842,0.511478 0.90515,0.563155 1.83262,1.326403 2.34089,2.27044 0.6248,0.957786 1.47719,1.723253 2.14318,2.640185 0.70437,0.710214 1.51303,1.345933 2.12319,2.14558 0.71918,0.67639 1.51801,1.321506 2.12106,2.114522 0.88101,0.588941 1.11691,1.709547 1.90239,2.399069 0.44405,0.476782 0.52247,1.118184 0.76526,1.688461 0.21836,0.512882 0.47746,0.949202 0.65159,1.494145 0.61412,1.259075 0.85216,2.639953 1.01469,4.017954 0.43241,1.182563 0.6192,2.421578 0.7384,3.668522 -0.0397,1.241315 0.35495,2.405105 0.55829,3.615655 0.0363,1.2408 0.32411,2.40395 0.59175,3.60419 0.26804,1.34026 0.3175,2.70908 0.35401,4.07128 0.32561,1.16752 0.50295,2.36044 0.61285,3.5651 0.19395,1.31765 -0.0686,2.69046 0.21561,3.98979 0.32759,1.23409 0.45239,2.50383 0.53365,3.77385 0.30537,1.36532 0.52012,2.7431 0.64941,4.13555 0.33764,1.39819 0.56894,2.81251 0.70617,4.24343 0.11956,1.24386 0.49792,2.43821 0.66097,3.6844 0.001,1.22987 0.41222,2.37671 0.62129,3.57687 0.0456,1.55071 0.42202,3.05446 0.66037,4.58092 0.27619,0.98176 0.0513,2.06479 0.26007,3.04775 0.0675,0.31779 0.30254,0.57507 0.44813,0.8655 0.60804,1.2858 0.80424,2.69151 0.92954,4.09261 -0.0145,1.40085 0.31221,2.75955 0.51369,4.13777 0.19774,1.45256 0.23965,2.9191 0.26625,4.38281 0.013,0.94939 0.0125,1.8989 0.0127,2.84836 0,0 -20.87203,2.7e-4 -20.87203,2.7e-4 l 0,0 c -1e-4,-0.93681 4.5e-4,-1.87365 -0.0124,-2.81039 -0.0254,-1.37287 -0.0629,-2.74907 -0.26066,-4.11013 -0.21761,-1.41038 -0.51996,-2.80921 -0.53357,-4.24261 -0.13305,-1.20919 -0.39098,-2.37722 -0.92967,-3.47841 -0.50638,-1.43608 -0.47578,-2.91257 -0.66141,-4.41069 -0.23514,-1.50569 -0.54354,-2.99904 -0.73915,-4.51018 -0.25421,-1.2171 -0.55701,-2.42054 -0.61162,-3.66981 -0.20287,-1.26138 -0.58301,-2.49442 -0.62157,-3.77901 -0.14684,-1.43254 -0.44004,-2.83487 -0.7074,-4.24838 -0.14214,-1.41007 -0.42575,-2.79141 -0.67286,-4.18538 -0.10019,-1.22333 -0.30309,-2.42625 -0.54948,-3.6283 -0.12807,-1.35431 -0.0624,-2.7183 -0.20713,-4.07276 -0.14429,-1.24914 -0.45758,-2.46435 -0.59393,-3.71345 -0.0445,-1.2289 -0.10548,-2.46422 -0.39508,-3.66466 -0.28912,-1.22344 -0.43635,-2.45338 -0.58526,-3.6999 -0.24669,-1.24895 -0.53219,-2.4862 -0.54193,-3.767895 -0.14933,-1.229268 -0.47414,-2.412521 -0.71621,-3.624343 -0.17646,-1.238659 -0.516,-2.412826 -1.07113,-3.539457 -0.38883,-0.872451 -0.72131,-1.789191 -1.40314,-2.4826 -0.55122,-0.844778 -1.15092,-1.605796 -1.89532,-2.285465 -0.76302,-0.644822 -1.41468,-1.41861 -2.12079,-2.122607 -0.77991,-0.676082 -1.44178,-1.491462 -2.1149,-2.270165 -0.77183,-0.834342 -1.3756,-1.806207 -2.13172,-2.655891 -0.81064,-0.514335 -1.48617,-1.231058 -2.32389,-1.715032 -0.87255,-0.477197 -1.46776,-1.34836 -2.39854,-1.742926 -0.86265,-0.609019 -1.76482,-1.155144 -2.65799,-1.720887 -1.05781,-0.477722 -1.94279,-1.282372 -3.0327,-1.71215 -0.9132,-0.524698 -1.91166,-0.893684 -2.82753,-1.414641 -0.91189,-0.524694 -1.90874,-0.894238 -2.82415,-1.413594 -0.92124,-0.526795 -1.92687,-0.89681 -2.86845,-1.38608 -1.04667,-0.53669 -2.18688,-0.8794 -3.2645,-1.35056 -1.03277,-0.488907 -2.07008,-0.947621 -3.09072,-1.447816 -0.96029,-0.513209 -2.04958,-0.841237 -2.86098,-1.602075 -0.71599,-0.835603 -1.35518,-1.7284 -1.97557,-2.635791 -0.68392,-0.648083 -1.34666,-1.307475 -2.02165,-1.962972 -0.73274,-0.846656 -1.55309,-1.613817 -2.24346,-2.50075 -0.86971,-1.15589 -1.71263,-2.334527 -2.60746,-3.468502 0,0 20.9657,-1.35101 20.9657,-1.35101 z"
       inkscape:connector-curvature="0"
       transform="translate(0,694.36218)" />
    <path
       style="fill:#cccccc;fill-opacity:1;stroke:#000000;stroke-width:0;stroke-miterlimit:4;stroke-opacity:1;stroke-dasharray:none"
       id="path3022"
       d="m 185.48362,111.73906 c -1.17426,0.79247 -2.34092,1.58462 -3.54387,2.33317 -0.77074,0.70177 -1.58458,1.37746 -2.14434,2.26399 -0.66365,0.85168 -1.10713,1.85011 -1.41766,2.87775 -0.38743,1.1335 -0.75628,2.24915 -0.92494,3.43805 -0.24077,1.17916 -0.56391,2.32842 -0.71179,3.52558 -0.0872,1.12129 0.25584,2.23283 0.39147,3.34885 -0.002,1.22763 0.41434,2.37008 0.6259,3.56701 0.0444,1.24267 0.333,2.40897 0.60124,3.61183 0.21183,1.22969 0.25317,2.44989 0.57621,3.65436 0.20619,1.2724 0.50973,2.5162 0.77946,3.77612 0.4525,0.97823 0.56354,1.95384 1.79728,1.22247 6.72263,-2.53903 0.57433,-0.16035 -19.80215,-0.20845 -0.19154,-4.5e-4 0.38339,-0.007 0.57459,0.004 0.60073,0.0355 0.98196,-0.0245 1.56834,-0.19527 0.99136,-0.15153 1.87071,-0.69991 2.80319,-1.04825 0.78559,-0.67583 1.7621,-1.0342 2.55782,-1.68581 0.79212,-0.54992 1.53746,-1.20909 2.18633,-1.92753 0.75307,-0.58903 1.31646,-1.32293 1.89977,-2.06557 0.57308,-0.84177 0.97043,-1.78555 1.46772,-2.67058 0.48066,-0.93809 0.94767,-1.86552 1.29307,-2.86237 0.43308,-0.99302 0.73037,-2.03358 1.10441,-3.04948 0.37745,-1.12799 0.42324,-2.32408 0.46884,-3.50202 -0.0557,-1.30928 0.20126,-2.67112 -0.0762,-3.95981 -0.23938,-0.95672 -0.48621,-2.03224 -1.07337,-2.84318 -0.51716,-0.89338 -0.79041,-1.96458 -1.40981,-2.79139 -0.33154,-0.63233 -0.54074,-1.31412 -0.95593,-1.90009 -0.0765,-0.10796 -0.1943,-0.17967 -0.29144,-0.26951 -0.0955,-0.15012 -0.19102,-0.30024 -0.28653,-0.45036 -0.1283,-0.27133 -0.32792,-1.04855 -0.81211,-0.9685 -0.23441,0.0388 -0.86333,0.33731 -0.62577,0.34127 6.81719,0.11382 13.63585,0.10744 20.45378,0.16115 -0.89268,-0.0755 -1.81086,0.19463 -2.53979,0.71023 -0.76446,0.60396 -1.73837,0.87171 -2.37191,1.62558 -0.63382,0.65578 -1.12034,1.48477 -1.46622,2.32802 -0.42737,1.01778 -0.7834,2.02309 -0.94624,3.11735 -0.15671,1.20875 -0.19591,2.38923 0.0752,3.57553 0.14948,1.15104 0.64739,2.17841 0.89418,3.3102 0.63898,0.96301 0.57199,2.17151 0.99168,3.20232 0.36542,1.1097 0.5216,2.24481 0.88496,3.35158 0.0506,0.1961 0.10116,0.3922 0.15174,0.5883 0,0 -20.92835,0.56495 -20.92835,0.56495 l 0,0 c -0.0516,-0.17315 -0.10313,-0.3463 -0.15469,-0.51945 -0.33131,-1.11313 -0.47599,-2.27206 -0.88437,-3.36461 -0.27098,-1.1277 -0.58353,-2.22699 -0.98543,-3.31574 -0.32165,-1.13342 -0.7455,-2.23665 -0.89008,-3.41547 -0.23587,-1.40653 -0.18159,-2.82269 -0.0612,-4.24057 0.12992,-1.20388 0.29375,-2.4398 0.92095,-3.50099 0.3061,-1.17855 0.87319,-2.1847 1.48446,-3.22479 0.42003,-0.42603 0.61882,-0.9964 1.09419,-1.37033 0.12901,-0.10148 0.30254,-0.13283 0.43698,-0.22701 0.82536,-0.57822 0.0382,-0.25542 0.88505,-0.53285 1.42184,-0.9079 -0.74413,0.52279 0.83897,-0.71523 0.54111,-0.42316 1.15994,-0.67036 1.7583,-0.99446 7.06454,0.0248 14.13041,-0.0651 21.19362,0.0743 0.24345,0.005 0.67783,0.71413 0.7567,0.8447 0.26775,0.44327 0.43966,0.94586 0.77584,1.34781 0.62794,0.86838 1.00883,1.86631 1.53863,2.79261 0.4392,0.97386 0.95569,1.90925 1.4106,2.87619 0.45364,1.15283 0.92032,2.29945 1.04485,3.54638 0.12736,1.43413 0.0557,2.87622 0.0514,4.31472 -0.0379,1.37237 -0.0856,2.75637 -0.41922,4.0952 -0.32189,1.0954 -0.77185,2.1368 -1.10051,3.23087 -0.28489,0.51918 -0.35871,1.07194 -0.5883,1.61674 -0.83918,1.99134 0.27952,-0.73078 -0.49507,0.83192 -0.0924,0.18645 -0.13991,0.39197 -0.20987,0.58796 -0.48168,0.96745 -1.02629,1.89296 -1.4724,2.87454 -0.54235,0.95156 -1.16902,1.81426 -1.93199,2.5876 -0.88311,0.62355 0.19688,-0.19361 -0.71475,0.71789 -0.48949,0.48942 -1.06585,0.88628 -1.49548,1.4439 -1.32971,0.83144 0.64981,-0.45465 -0.81713,0.69307 -0.53904,0.42175 -1.15691,0.66974 -1.74468,1.0121 -0.38752,0.39298 -0.90008,0.79139 -1.3945,1.04638 -0.49715,0.25639 -1.12713,0.25017 -1.51966,0.73739 -0.59558,0.14558 -1.06452,0.45364 -1.63081,0.63462 -0.17848,0.057 -0.37143,0.0608 -0.55881,0.0611 -21.28737,0.0305 -14.752,2.78264 -21.74144,-0.24339 -1,-0.94783 -1.51602,-2.22329 -1.84203,-3.5452 -0.29582,-1.24409 -0.57323,-2.48809 -0.82953,-3.7405 -0.2693,-1.21782 -0.29285,-2.46464 -0.57454,-3.68052 -0.28857,-1.21896 -0.43561,-2.44493 -0.59556,-3.68535 -0.25868,-1.22184 -0.56849,-2.42961 -0.61927,-3.68522 -0.19184,-1.278 -0.54505,-2.55236 -0.38333,-3.85487 0.11463,-1.20904 0.2847,-2.41517 0.71451,-3.55887 0.13997,-1.27742 0.34852,-2.55534 0.93894,-3.71355 0.29401,-1.27999 0.7429,-2.51386 1.38139,-3.66262 0.64012,-0.74363 -0.0378,0.1037 0.60134,-0.95758 0.40643,-0.67489 1.10297,-1.18424 1.64009,-1.74472 0.96258,-1.09308 2.32121,-1.62424 3.45011,-2.52134 0,0 20.91893,1.94538 20.91893,1.94538 z"
       inkscape:connector-curvature="0"
       transform="translate(0,694.36218)" />
    <path
       style="fill:#cccccc;fill-opacity:1;stroke:#000000;stroke-width:0;stroke-miterlimit:4;stroke-opacity:1;stroke-dasharray:none"
       id="path3024"
       d="m 185.18259,141.97281 c -0.15973,0.53774 -0.19515,1.10186 -0.22474,1.65904 -0.022,0.52396 -0.021,1.04851 -0.0208,1.57282 0.0216,0.32582 -0.0402,0.64507 -0.10316,0.96251 0,0 -7.39628,-0.14659 -7.39628,-0.14659 l 0,0 c 0.0551,-0.27108 0.14545,-0.53781 0.12204,-0.81772 0.003,-0.53832 0.007,-1.07691 0.0388,-1.61448 0.0382,-0.5889 0.10281,-1.1749 0.15919,-1.76216 0,0 7.42499,0.14658 7.42499,0.14658 z"
       inkscape:connector-curvature="0"
       transform="translate(0,694.36218)" />
  </g>
</svg>
